<svg width="29" height="38" viewBox="0 0 29 38" fill="none" xmlns="http://www.w3.org/2000/svg">
<path d="M9.07654 12.7655L9.07343 12.7671L9.06876 12.7704L9.07654 12.7655ZM24.5606 12.4562C24.4524 12.3451 24.3323 12.248 24.2028 12.1667C24.0195 12.0519 23.816 11.9784 23.6049 11.9506C23.3938 11.9227 23.1796 11.9413 22.9755 12.005C22.7713 12.0687 22.5817 12.1763 22.4182 12.321C22.2548 12.4658 22.1209 12.6446 22.0251 12.8465C21.4893 13.9696 20.7503 14.969 19.8504 15.7876C19.9884 14.9631 20.0581 14.1273 20.0588 13.2898C20.0618 10.7427 19.43 8.24026 18.2277 6.03723C17.0254 3.8342 15.2956 2.00929 13.2143 0.748304C12.985 0.609736 12.7263 0.53546 12.4625 0.532459C12.1987 0.529457 11.9386 0.597828 11.7065 0.731145C11.4744 0.864462 11.278 1.05835 11.1358 1.29457C10.9936 1.53079 10.9102 1.8016 10.8934 2.08152C10.8063 3.6498 10.4208 5.18294 9.76005 6.58809C9.09934 7.99324 8.17725 9.24114 7.04964 10.2562L6.69186 10.5655C5.51214 11.4095 4.46795 12.45 3.5994 13.6471C2.2496 15.4553 1.31457 17.573 0.86848 19.8323C0.422387 22.0916 0.477498 24.4304 1.02944 26.6631C1.58139 28.8958 2.61499 30.9611 4.04826 32.6951C5.48153 34.4291 7.27504 35.7841 9.28654 36.6526C9.5227 36.7549 9.77888 36.7938 10.0325 36.766C10.2861 36.7382 10.5295 36.6445 10.741 36.4932C10.9526 36.3419 11.126 36.1376 11.2459 35.8983C11.3658 35.659 11.4285 35.3921 11.4286 35.1209C11.4273 34.9457 11.401 34.7717 11.3508 34.6048C11.0027 33.2138 10.9025 31.7658 11.0552 30.3356C12.5275 33.2875 14.8905 35.6272 17.7644 36.9785C18.115 37.1452 18.5113 37.1676 18.8766 37.0414C21.1469 36.262 23.1921 34.8784 24.8179 33.0219C26.4437 31.1654 27.5962 28.8976 28.1657 26.4342C28.7353 23.9707 28.703 21.3933 28.072 18.9468C27.4411 16.5003 26.2323 14.266 24.5606 12.4562ZM18.4861 33.6802C17.1301 32.9496 15.9339 31.9236 14.9753 30.6691C14.0166 29.4146 13.317 27.9596 12.9219 26.3987C12.8011 25.8731 12.7076 25.3408 12.6419 24.8042C12.5976 24.4625 12.454 24.1441 12.2312 23.8934C12.0083 23.6428 11.7174 23.4725 11.399 23.4064C11.3011 23.3862 11.2016 23.3763 11.1019 23.3767C10.8286 23.3764 10.56 23.4527 10.3232 23.5979C10.0865 23.7431 9.88987 23.952 9.75321 24.2037C8.46279 26.5712 7.814 29.2724 7.87876 32.0079C6.74344 31.0695 5.79458 29.9008 5.08717 28.5696C4.37976 27.2384 3.92788 25.7711 3.75772 24.2528C3.58756 22.7345 3.7025 21.1953 4.09589 19.7246C4.48928 18.2539 5.15328 16.8808 6.04941 15.685C6.72985 14.7452 7.55068 13.9305 8.4792 13.2733C8.51984 13.2456 8.5588 13.2152 8.59587 13.1823C8.59587 13.1823 9.05632 12.7771 9.07187 12.7688C11.2889 10.7757 12.8658 8.09668 13.583 5.10526C15.2777 6.77156 16.4075 8.98625 16.7971 11.4054C17.1867 13.8246 16.8142 16.3128 15.7375 18.4838C15.595 18.7735 15.5364 19.1017 15.5693 19.4268C15.6021 19.752 15.7248 20.0595 15.9219 20.3105C16.119 20.5614 16.3816 20.7447 16.6766 20.8371C16.9716 20.9294 17.2857 20.9267 17.5793 20.8293C19.962 20.0347 22.0585 18.483 23.5868 16.383C24.5057 17.8258 25.1065 19.4705 25.3444 21.1946C25.5823 22.9186 25.4513 24.6775 24.961 26.3402C24.4707 28.0029 23.6338 29.5264 22.5127 30.7973C21.3916 32.0682 20.0152 33.0536 18.4861 33.6802Z" fill="#35F9AC"/>
</svg>
