<svg width="50" height="57" viewBox="0 0 50 57" fill="none" xmlns="http://www.w3.org/2000/svg">
<path d="M45.5925 0.0847168H3.83153C1.83177 0.0847168 0.210938 1.90828 0.210938 4.15899V52.8765C0.210938 55.1272 1.83231 56.9527 3.83153 56.9527H45.5925C47.5923 56.9527 49.2109 55.1266 49.2109 52.8765V4.15899C49.2109 1.90892 47.5923 0.0847168 45.5925 0.0847168ZM15.0663 47.687H7.66283V22.0117H15.0663V47.687ZM11.3651 18.5043H11.3155C8.83285 18.5043 7.22346 16.5335 7.22346 14.0667C7.22346 11.5499 8.88022 9.63285 11.4119 9.63285C13.9442 9.63285 15.5018 11.5493 15.5508 14.0667C15.5508 16.5341 13.9447 18.5043 11.3651 18.5043ZM41.7541 47.687H34.3529V33.9502C34.3529 30.4977 33.2803 28.1427 30.6038 28.1427C28.5561 28.1427 27.3409 29.7319 26.8073 31.2654C26.6092 31.8139 26.5607 32.5797 26.5607 33.3455V47.6864H19.1605C19.1605 47.6864 19.2574 24.4192 19.1605 22.0111H26.5613V25.6513C27.544 23.9023 29.2993 21.4071 33.2302 21.4071C38.1014 21.4071 41.7541 25.0744 41.7541 32.9645V47.687ZM26.5133 25.7328C26.5264 25.7088 26.5438 25.6791 26.5613 25.6513V25.7328H26.5133Z" fill="white"/>
</svg>
