<svg width="50" height="58" viewBox="0 0 50 58" fill="none" xmlns="http://www.w3.org/2000/svg">
<path d="M45.5027 0.516846H3.74169C1.74192 0.516846 0.121094 2.34041 0.121094 4.59112V53.3087C0.121094 55.5594 1.74247 57.3848 3.74169 57.3848H45.5027C47.5024 57.3848 49.1211 55.5587 49.1211 53.3087V4.59112C49.1211 2.34104 47.5024 0.516846 45.5027 0.516846ZM14.9764 48.1191H7.57299V22.4439H14.9764V48.1191ZM11.2753 18.9364H11.2257C8.74301 18.9364 7.13362 16.9656 7.13362 14.4988C7.13362 11.9821 8.79038 10.065 11.3221 10.065C13.8543 10.065 15.412 11.9814 15.461 14.4988C15.461 16.9662 13.8549 18.9364 11.2753 18.9364ZM41.6643 48.1191H34.263V34.3824C34.263 30.9298 33.1905 28.5749 30.514 28.5749C28.4663 28.5749 27.2511 30.164 26.7175 31.6976C26.5193 32.246 26.4709 33.0118 26.4709 33.7777V48.1185H19.0707C19.0707 48.1185 19.1676 24.8513 19.0707 22.4432H26.4714V26.0834C27.4541 24.3344 29.2094 21.8392 33.1404 21.8392C38.0116 21.8392 41.6643 25.5065 41.6643 33.3967V48.1191ZM26.4235 26.1649C26.4366 26.1409 26.454 26.1112 26.4714 26.0834V26.1649H26.4235Z" fill="white"/>
</svg>
