<svg width="50" height="58" viewBox="0 0 50 58" fill="none" xmlns="http://www.w3.org/2000/svg">
<path d="M46.2019 0.615234H4.44091C2.44114 0.615234 0.820312 2.4388 0.820312 4.68951V53.407C0.820312 55.6578 2.44169 57.4832 4.44091 57.4832H46.2019C48.2017 57.4832 49.8203 55.6571 49.8203 53.407V4.68951C49.8203 2.43943 48.2017 0.615234 46.2019 0.615234ZM15.6756 48.2175H8.27221V22.5423H15.6756V48.2175ZM11.9745 19.0348H11.9249C9.44223 19.0348 7.83283 17.064 7.83283 14.5972C7.83283 12.0805 9.4896 10.1634 12.0213 10.1634C14.5535 10.1634 16.1112 12.0798 16.1602 14.5972C16.1602 17.0646 14.5541 19.0348 11.9745 19.0348ZM42.3635 48.2175H34.9623V34.4807C34.9623 31.0282 33.8897 28.6733 31.2132 28.6733C29.1655 28.6733 27.9503 30.2624 27.4167 31.7959C27.2185 32.3444 27.1701 33.1102 27.1701 33.8761V48.2169H19.7699C19.7699 48.2169 19.8668 24.9497 19.7699 22.5416H27.1706V26.1818C28.1534 24.4328 29.9087 21.9376 33.8396 21.9376C38.7108 21.9376 42.3635 25.6049 42.3635 33.495V48.2175ZM27.1227 26.2633C27.1358 26.2393 27.1532 26.2096 27.1706 26.1818V26.2633H27.1227Z" fill="white"/>
</svg>
