<svg width="50" height="58" viewBox="0 0 50 58" fill="none" xmlns="http://www.w3.org/2000/svg">
<path d="M45.5925 0.516846H3.83153C1.83177 0.516846 0.210938 2.34041 0.210938 4.59112V53.3087C0.210938 55.5594 1.83231 57.3848 3.83153 57.3848H45.5925C47.5923 57.3848 49.2109 55.5587 49.2109 53.3087V4.59112C49.2109 2.34104 47.5923 0.516846 45.5925 0.516846ZM15.0663 48.1191H7.66283V22.4439H15.0663V48.1191ZM11.3651 18.9364H11.3155C8.83285 18.9364 7.22346 16.9656 7.22346 14.4988C7.22346 11.9821 8.88022 10.065 11.4119 10.065C13.9442 10.065 15.5018 11.9814 15.5508 14.4988C15.5508 16.9662 13.9447 18.9364 11.3651 18.9364ZM41.7541 48.1191H34.3529V34.3824C34.3529 30.9298 33.2803 28.5749 30.6038 28.5749C28.5561 28.5749 27.3409 30.164 26.8073 31.6976C26.6092 32.246 26.5607 33.0118 26.5607 33.7777V48.1185H19.1605C19.1605 48.1185 19.2574 24.8513 19.1605 22.4432H26.5613V26.0834C27.544 24.3344 29.2993 21.8392 33.2302 21.8392C38.1014 21.8392 41.7541 25.5065 41.7541 33.3967V48.1191ZM26.5133 26.1649C26.5264 26.1409 26.5438 26.1112 26.5613 26.0834V26.1649H26.5133Z" fill="white"/>
</svg>
