<svg width="58" height="47" viewBox="0 0 58 47" fill="none" xmlns="http://www.w3.org/2000/svg">
<path d="M38.7042 22.1105H30.0741V14.3581C30.0741 14.0154 29.9226 13.6867 29.6528 13.4444C29.3831 13.2021 29.0172 13.066 28.6357 13.066C28.2543 13.066 27.8884 13.2021 27.6187 13.4444C27.3489 13.6867 27.1974 14.0154 27.1974 14.3581V22.1105H18.5673C18.1858 22.1105 17.8199 22.2466 17.5502 22.489C17.2804 22.7313 17.1289 23.0599 17.1289 23.4026C17.1289 23.7453 17.2804 24.0739 17.5502 24.3162C17.8199 24.5585 18.1858 24.6947 18.5673 24.6947H27.1974V32.4471C27.1974 32.7898 27.3489 33.1184 27.6187 33.3608C27.8884 33.6031 28.2543 33.7392 28.6357 33.7392C29.0172 33.7392 29.3831 33.6031 29.6528 33.3608C29.9226 33.1184 30.0741 32.7898 30.0741 32.4471V24.6947H38.7042C39.0857 24.6947 39.4516 24.5585 39.7213 24.3162C39.991 24.0739 40.1426 23.7453 40.1426 23.4026C40.1426 23.0599 39.991 22.7313 39.7213 22.489C39.4516 22.2466 39.0857 22.1105 38.7042 22.1105Z" fill="black"/>
</svg>
