<svg width="58" height="47" viewBox="0 0 58 47" fill="none" xmlns="http://www.w3.org/2000/svg">
<path d="M38.6144 22.5426H29.9843V14.7901C29.9843 14.4474 29.8327 14.1188 29.563 13.8765C29.2932 13.6342 28.9274 13.498 28.5459 13.498C28.1644 13.498 27.7986 13.6342 27.5288 13.8765C27.2591 14.1188 27.1075 14.4474 27.1075 14.7901V22.5426H18.4774C18.0959 22.5426 17.7301 22.6787 17.4603 22.921C17.1906 23.1633 17.0391 23.492 17.0391 23.8347C17.0391 24.1773 17.1906 24.506 17.4603 24.7483C17.7301 24.9906 18.0959 25.1267 18.4774 25.1267H27.1075V32.8792C27.1075 33.2219 27.2591 33.5505 27.5288 33.7928C27.7986 34.0351 28.1644 34.1713 28.5459 34.1713C28.9274 34.1713 29.2932 34.0351 29.563 33.7928C29.8327 33.5505 29.9843 33.2219 29.9843 32.8792V25.1267H38.6144C38.9959 25.1267 39.3617 24.9906 39.6315 24.7483C39.9012 24.506 40.0527 24.1773 40.0527 23.8347C40.0527 23.492 39.9012 23.1633 39.6315 22.921C39.3617 22.6787 38.9959 22.5426 38.6144 22.5426Z" fill="black"/>
</svg>
