<svg width="58" height="47" viewBox="0 0 58 47" fill="none" xmlns="http://www.w3.org/2000/svg">
<path d="M38.7042 22.5426H30.0741V14.7901C30.0741 14.4474 29.9226 14.1188 29.6528 13.8765C29.3831 13.6342 29.0172 13.498 28.6357 13.498C28.2543 13.498 27.8884 13.6342 27.6187 13.8765C27.3489 14.1188 27.1974 14.4474 27.1974 14.7901V22.5426H18.5673C18.1858 22.5426 17.8199 22.6787 17.5502 22.921C17.2804 23.1633 17.1289 23.492 17.1289 23.8347C17.1289 24.1773 17.2804 24.506 17.5502 24.7483C17.8199 24.9906 18.1858 25.1267 18.5673 25.1267H27.1974V32.8792C27.1974 33.2219 27.3489 33.5505 27.6187 33.7928C27.8884 34.0351 28.2543 34.1713 28.6357 34.1713C29.0172 34.1713 29.3831 34.0351 29.6528 33.7928C29.9226 33.5505 30.0741 33.2219 30.0741 32.8792V25.1267H38.7042C39.0857 25.1267 39.4516 24.9906 39.7213 24.7483C39.991 24.506 40.1426 24.1773 40.1426 23.8347C40.1426 23.492 39.991 23.1633 39.7213 22.921C39.4516 22.6787 39.0857 22.5426 38.7042 22.5426Z" fill="black"/>
</svg>
