<svg width="58" height="47" viewBox="0 0 58 47" fill="none" xmlns="http://www.w3.org/2000/svg">
<path d="M38.7042 22.5426H30.0741V14.7902C30.0741 14.4475 29.9226 14.1189 29.6528 13.8765C29.3831 13.6342 29.0172 13.4981 28.6357 13.4981C28.2543 13.4981 27.8884 13.6342 27.6187 13.8765C27.3489 14.1189 27.1974 14.4475 27.1974 14.7902V22.5426H18.5673C18.1858 22.5426 17.8199 22.6788 17.5502 22.9211C17.2804 23.1634 17.1289 23.492 17.1289 23.8347C17.1289 24.1774 17.2804 24.506 17.5502 24.7484C17.8199 24.9907 18.1858 25.1268 18.5673 25.1268H27.1974V32.8792C27.1974 33.2219 27.3489 33.5506 27.6187 33.7929C27.8884 34.0352 28.2543 34.1713 28.6357 34.1713C29.0172 34.1713 29.3831 34.0352 29.6528 33.7929C29.9226 33.5506 30.0741 33.2219 30.0741 32.8792V25.1268H38.7042C39.0857 25.1268 39.4516 24.9907 39.7213 24.7484C39.991 24.506 40.1426 24.1774 40.1426 23.8347C40.1426 23.492 39.991 23.1634 39.7213 22.9211C39.4516 22.6788 39.0857 22.5426 38.7042 22.5426Z" fill="black"/>
</svg>
