<svg width="47" height="50" viewBox="0 0 47 50" fill="none" xmlns="http://www.w3.org/2000/svg">
<g clip-path="url(#clip0_113_699)">
<path d="M15.6662 37.25C15.2782 37.2447 14.9076 37.0817 14.6332 36.7957C14.3589 36.5096 14.2025 36.1232 14.1974 35.7188V17.9767L10.2808 22.06C10.0054 22.3468 9.63207 22.5078 9.24285 22.5078C8.85363 22.5078 8.48032 22.3468 8.20493 22.06C7.92988 21.7729 7.77539 21.3837 7.77539 20.9779C7.77539 20.5721 7.92988 20.1829 8.20493 19.8958L14.6283 13.1992C14.7586 13.0538 14.9195 12.942 15.0983 12.8725C15.2775 12.7916 15.4708 12.7498 15.6662 12.7498C15.8615 12.7498 16.0548 12.7916 16.2341 12.8725C16.4129 12.942 16.5738 13.0538 16.7041 13.1992L23.0687 19.8346C23.3281 20.1249 23.4694 20.5088 23.4626 20.9055C23.4559 21.3022 23.3018 21.6807 23.0327 21.9612C22.7636 22.2418 22.4005 22.4025 22.02 22.4095C21.6395 22.4165 21.2713 22.2692 20.9928 21.9987L17.0762 17.9154V35.6575C17.0869 36.0623 16.9455 36.4554 16.682 36.7529C16.4186 37.0505 16.054 37.2288 15.6662 37.25ZM31.3328 12.75C30.9449 12.7553 30.5742 12.9183 30.2999 13.2043C30.0255 13.4904 29.8692 13.8768 29.8641 14.2813V32.0233L25.9474 27.94C25.672 27.6532 25.2987 27.4922 24.9095 27.4922C24.5203 27.4922 24.147 27.6532 23.8716 27.94C23.5965 28.2271 23.4421 28.6163 23.4421 29.0221C23.4421 29.4279 23.5965 29.8171 23.8716 30.1042L30.2362 36.7396C30.3665 36.8849 30.5274 36.9967 30.7062 37.0662C30.8855 37.1472 31.0787 37.1889 31.2741 37.1889C31.4695 37.1889 31.6627 37.1472 31.842 37.0662C32.0208 36.9967 32.1817 36.8849 32.312 36.7396L38.6766 30.1042C38.936 29.8139 39.0773 29.43 39.0706 29.0333C39.0639 28.6366 38.9097 28.2581 38.6406 27.9775C38.3715 27.697 38.0085 27.5363 37.628 27.5293C37.2474 27.5223 36.8792 27.6695 36.6008 27.94L32.6841 32.0233V14.2813C32.6808 13.8969 32.5408 13.5274 32.2911 13.2445C32.0415 12.9616 31.7 12.7854 31.3328 12.75Z" fill="white"/>
</g>
<defs>
<clipPath id="clip0_113_699">
<rect width="47" height="49" fill="white" transform="translate(0 0.5)"/>
</clipPath>
</defs>
</svg>
