<svg width="50" height="57" viewBox="0 0 50 57" fill="none" xmlns="http://www.w3.org/2000/svg">
<path d="M24.6366 0.0847168C18.8191 0.0850039 13.1914 2.54849 8.76064 7.03438C4.32985 11.5203 1.38505 17.7358 0.45316 24.5689C-0.478735 31.402 0.663085 38.4067 3.67431 44.3297C6.68554 50.2527 11.3697 54.7075 16.8886 56.8969C18.1136 57.152 18.573 56.2775 18.573 55.5121C18.573 54.8198 18.5423 52.5239 18.5423 50.0824C12.3867 51.4307 10.7942 48.2968 10.3042 46.657C9.7605 45.0621 8.8986 43.6487 7.79298 42.539C6.93549 41.9924 5.7105 40.644 7.76233 40.6077C8.54581 40.7088 9.29724 41.0332 9.95296 41.5534C10.6087 42.0735 11.1494 42.7741 11.5292 43.5958C11.8643 44.3121 12.3149 44.9426 12.8551 45.4514C13.3954 45.9601 14.0147 46.3369 14.6775 46.5604C15.3404 46.7838 16.0338 46.8494 16.718 46.7534C17.4022 46.6574 18.0637 46.4017 18.6647 46.0009C18.7708 44.5188 19.3259 43.1331 20.2266 42.1018C14.7754 41.3729 9.07922 38.8584 9.07922 27.7074C9.04479 24.81 9.9433 22.0067 11.5905 19.8725C10.8415 17.3543 10.9291 14.5908 11.8355 12.1469C11.8355 12.1469 13.8872 11.3816 18.5729 15.1351C22.5818 13.8231 26.8139 13.8231 30.8228 15.1351C35.5084 11.3452 37.5603 12.1469 37.5603 12.1469C38.4668 14.5907 38.5544 17.3543 37.8053 19.8725C39.4574 22.0031 40.3567 24.8088 40.3165 27.7074C40.3165 38.8948 34.5896 41.3729 29.1385 42.1018C29.7231 42.8069 30.1735 43.6536 30.4588 44.5842C30.7442 45.5148 30.8579 46.5076 30.7922 47.4951C30.7922 51.3944 30.7615 54.5283 30.7615 55.5122C30.7615 56.2775 31.2209 57.1885 32.4459 56.897C37.9551 54.6897 42.6258 50.2245 45.6242 44.2985C48.6226 38.3725 49.7535 31.3714 48.8152 24.5449C47.8768 17.7184 44.9302 11.5109 40.5014 7.03049C36.0725 2.55005 30.4497 0.0883169 24.6366 0.0847168Z" fill="white"/>
</svg>
