<svg width="30" height="24" viewBox="0 0 30 24" fill="none" xmlns="http://www.w3.org/2000/svg">
<path d="M13.3216 8.66528H16.2819C16.6745 8.66528 17.051 8.78476 17.3286 8.99746C17.6062 9.21015 17.7621 9.49862 17.7621 9.79941C17.7621 10.1002 17.9181 10.3887 18.1956 10.6014C18.4732 10.8141 18.8497 10.9335 19.2423 10.9335C19.6349 10.9335 20.0113 10.8141 20.2889 10.6014C20.5665 10.3887 20.7225 10.1002 20.7225 9.79941C20.7225 8.89704 20.2546 8.03162 19.4219 7.39354C18.5891 6.75547 17.4596 6.397 16.2819 6.397H13.3216C12.1439 6.397 11.0144 6.75547 10.1817 7.39354C9.3489 8.03162 8.88106 8.89704 8.88106 9.79941V14.336C8.88106 15.2383 9.3489 16.1038 10.1817 16.7418C11.0144 17.3799 12.1439 17.7384 13.3216 17.7384H16.2819C17.4596 17.7384 18.5891 17.3799 19.4219 16.7418C20.2546 16.1038 20.7225 15.2383 20.7225 14.336C20.7225 14.0352 20.5665 13.7467 20.2889 13.534C20.0113 13.3213 19.6349 13.2018 19.2423 13.2018C18.8497 13.2018 18.4732 13.3213 18.1956 13.534C17.9181 13.7467 17.7621 14.0352 17.7621 14.336C17.7621 14.6368 17.6062 14.9252 17.3286 15.1379C17.051 15.3506 16.6745 15.4701 16.2819 15.4701H13.3216C12.929 15.4701 12.5525 15.3506 12.2749 15.1379C11.9974 14.9252 11.8414 14.6368 11.8414 14.336V9.79941C11.8414 9.49862 11.9974 9.21015 12.2749 8.99746C12.5525 8.78476 12.929 8.66528 13.3216 8.66528ZM14.8018 0.726318C11.8743 0.726318 9.01248 1.39148 6.57835 2.63768C4.14421 3.88389 2.24703 5.65517 1.12672 7.72753C0.00641336 9.7999 -0.286711 12.0803 0.284418 14.2803C0.855547 16.4803 2.26528 18.5011 4.33534 20.0872C6.4054 21.6734 9.04282 22.7535 11.9141 23.1911C14.7853 23.6287 17.7615 23.4041 20.4661 22.5457C23.1708 21.6873 25.4825 20.2337 27.109 18.3686C28.7354 16.5035 29.6035 14.3108 29.6035 12.0677C29.6035 10.5783 29.2207 9.10353 28.4768 7.72753C27.7329 6.35153 26.6427 5.10127 25.2682 4.04813C23.8937 2.99498 22.262 2.15959 20.4661 1.58963C18.6703 1.01967 16.7456 0.726318 14.8018 0.726318ZM14.8018 21.1408C12.4598 21.1408 10.1703 20.6087 8.22303 19.6117C6.27572 18.6147 4.75798 17.1977 3.86173 15.5398C2.96548 13.8819 2.73098 12.0576 3.18789 10.2976C3.64479 8.5376 4.77257 6.92093 6.42862 5.65204C8.08467 4.38314 10.1946 3.51902 12.4916 3.16893C14.7886 2.81884 17.1695 2.99852 19.3333 3.68524C21.497 4.37196 23.3464 5.53488 24.6475 7.02694C25.9487 8.51901 26.6432 10.2732 26.6432 12.0677C26.6432 14.474 25.3956 16.7818 23.1749 18.4833C20.9542 20.1849 17.9423 21.1408 14.8018 21.1408Z" fill="white"/>
</svg>
