<svg width="18" height="16" viewBox="0 0 18 16" fill="none" xmlns="http://www.w3.org/2000/svg">
<path d="M8.1 12H9.9V7.2H8.1V12ZM9 0C4.0275 0 0 3.58 0 8C0 12.42 4.0275 16 9 16C13.9725 16 18 12.42 18 8C18 3.58 13.9725 0 9 0ZM9 14.4C5.031 14.4 1.8 11.528 1.8 8C1.8 4.472 5.031 1.6 9 1.6C12.969 1.6 16.2 4.472 16.2 8C16.2 11.528 12.969 14.4 9 14.4ZM8.1 5.6H9.9V4H8.1V5.6Z" fill="white"/>
<path d="M8.1 12H9.9V7.2H8.1V12ZM9 0C4.0275 0 0 3.58 0 8C0 12.42 4.0275 16 9 16C13.9725 16 18 12.42 18 8C18 3.58 13.9725 0 9 0ZM9 14.4C5.031 14.4 1.8 11.528 1.8 8C1.8 4.472 5.031 1.6 9 1.6C12.969 1.6 16.2 4.472 16.2 8C16.2 11.528 12.969 14.4 9 14.4ZM8.1 5.6H9.9V4H8.1V5.6Z" fill="white"/>
<path d="M8.1 12H9.9V7.2H8.1V12ZM9 0C4.0275 0 0 3.58 0 8C0 12.42 4.0275 16 9 16C13.9725 16 18 12.42 18 8C18 3.58 13.9725 0 9 0ZM9 14.4C5.031 14.4 1.8 11.528 1.8 8C1.8 4.472 5.031 1.6 9 1.6C12.969 1.6 16.2 4.472 16.2 8C16.2 11.528 12.969 14.4 9 14.4ZM8.1 5.6H9.9V4H8.1V5.6Z" fill="white"/>
</svg>
