<svg width="8" height="10" viewBox="0 0 8 10" fill="none" xmlns="http://www.w3.org/2000/svg">
<path d="M3.98933 4.68703L4.07373 2.69623L3.98455 0.727734L3.89873 2.69644L3.98933 4.68703ZM3.98878 5.38743L3.90438 7.37823L3.99496 9.34843L4.07938 7.37802L3.98878 5.38743ZM3.84519 4.73481L3.09825 2.95921L2.21005 1.30618L2.94717 3.06479L3.84519 4.73481ZM4.13432 5.34136L4.87987 7.11696L5.76946 8.76828L5.03094 7.00968L4.13432 5.34136ZM3.73895 4.86243L2.36283 3.77779L0.912758 2.88704L2.27486 3.9615L3.73895 4.86243ZM4.23917 5.21373L5.61668 6.29837L7.06676 7.18912L5.70326 6.11466L4.23917 5.21373Z" fill="#314294"/>
</svg>
