<svg width="8" height="12" viewBox="0 0 8 12" fill="none" xmlns="http://www.w3.org/2000/svg">
<path d="M3.96102 5.6166L4.06128 3.15682L3.95512 0.72459L3.85316 3.15707L3.96102 5.6166ZM3.9604 6.482L3.86014 8.94178L3.96797 11.3761L4.06826 8.94153L3.9604 6.482ZM3.7896 5.67562L2.90118 3.48169L1.84478 1.4392L2.72152 3.61214L3.7896 5.67562ZM4.13349 6.42507L5.02024 8.619L6.0783 10.6594L5.1999 8.48646L4.13349 6.42507ZM3.66325 5.83331L2.02662 4.49308L0.302043 3.39241L1.92201 4.72005L3.66325 5.83331ZM4.25817 6.26739L5.89647 7.60762L7.62105 8.70828L5.99942 7.38064L4.25817 6.26739Z" fill="#314294"/>
</svg>
