<svg width="49" height="58" viewBox="0 0 49 58" fill="none" xmlns="http://www.w3.org/2000/svg">
<path d="M24.4999 0.615234C18.6824 0.615521 13.0547 3.07901 8.62392 7.5649C4.19313 12.0508 1.24834 18.2664 0.316441 25.0995C-0.615454 31.9325 0.526367 38.9373 3.5376 44.8603C6.54882 50.7832 11.233 55.238 16.7519 57.4274C17.9769 57.6826 18.4362 56.808 18.4362 56.0426C18.4362 55.3503 18.4056 53.0544 18.4056 50.6129C12.25 51.9612 10.6575 48.8273 10.1675 47.1875C9.62378 45.5926 8.76188 44.1792 7.65626 43.0695C6.79877 42.5229 5.57378 41.1746 7.62561 41.1382C8.40909 41.2393 9.16052 41.5637 9.81624 42.0839C10.472 42.6041 11.0127 43.3046 11.3925 44.1263C11.7276 44.8426 12.1781 45.4731 12.7184 45.9819C13.2586 46.4906 13.8779 46.8675 14.5408 47.0909C15.2037 47.3143 15.8971 47.3799 16.5813 47.2839C17.2655 47.1879 17.927 46.9322 18.528 46.5314C18.6341 45.0493 19.1892 43.6636 20.0899 42.6323C14.6387 41.9035 8.9425 39.3889 8.9425 28.2379C8.90808 25.3405 9.80658 22.5373 11.4537 20.403C10.7047 17.8848 10.7924 15.1213 11.6987 12.6774C11.6987 12.6774 13.7505 11.9121 18.4362 15.6656C22.4451 14.3537 26.6772 14.3537 30.6861 15.6656C35.3716 11.8757 37.4236 12.6774 37.4236 12.6774C38.33 15.1213 38.4177 17.8849 37.6686 20.403C39.3207 22.5336 40.22 25.3393 40.1798 28.2379C40.1798 39.4254 34.4529 41.9035 29.0017 42.6323C29.5864 43.3375 30.0367 44.1841 30.3221 45.1147C30.6074 46.0453 30.7211 47.0381 30.6555 48.0256C30.6555 51.9249 30.6248 55.0588 30.6248 56.0427C30.6248 56.808 31.0842 57.7191 32.3092 57.4275C37.8184 55.2202 42.4891 50.7551 45.4875 44.829C48.4859 38.903 49.6168 31.9019 48.6785 25.0754C47.7401 18.2489 44.7935 12.0414 40.3647 7.561C35.9358 3.08057 30.313 0.618835 24.4999 0.615234Z" fill="white"/>
</svg>
