<svg width="43" height="48" viewBox="0 0 43 48" fill="none" xmlns="http://www.w3.org/2000/svg">
<path d="M21.4973 0.5C9.62663 0.5 1.24068e-05 11.2289 1.24068e-05 24.4641C-0.00483751 29.4871 1.41233 34.3847 4.05123 38.4649C6.69013 42.5451 10.4173 45.6014 14.706 47.2019C15.781 47.4227 16.1734 46.6828 16.1734 46.0472C16.1734 45.4774 16.1546 43.9707 16.1438 41.9717C10.1641 43.4187 8.90101 38.7584 8.90101 38.7584C7.92544 35.9896 6.51451 35.2527 6.51451 35.2527C4.5607 33.7669 6.65963 33.7967 6.65963 33.7967C8.81769 33.9668 9.95182 36.2671 9.95182 36.2671C11.8707 39.9279 14.9855 38.8718 16.211 38.2571C16.4045 36.7087 16.9608 35.6525 17.5763 35.0528C12.8033 34.4471 7.78301 32.3914 7.78301 23.211C7.78301 20.5944 8.62151 18.4552 9.99751 16.7784C9.77444 16.1727 9.03807 13.7351 10.2071 10.4383C10.2071 10.4383 12.0131 9.79383 16.1196 12.8938C17.8739 12.3615 19.6841 12.0906 21.5027 12.0882C23.3214 12.0922 25.1315 12.3641 26.8857 12.8968C30.9896 9.79682 32.7929 10.4413 32.7929 10.4413C33.9646 13.7411 33.2282 16.1757 33.0079 16.7814C34.3866 18.4581 35.217 20.5974 35.217 23.214C35.217 32.4183 30.1914 34.4441 25.4022 35.0379C26.1736 35.7778 26.8616 37.2397 26.8616 39.4744C26.8616 42.6788 26.8347 45.2626 26.8347 46.0472C26.8347 46.6887 27.2217 47.4346 28.3128 47.1989C32.5973 45.5946 36.3199 42.5371 38.9551 38.4579C41.5903 34.3788 43.0052 29.4839 43 24.4641C43 11.2289 33.3734 0.5 21.4973 0.5Z" fill="white"/>
</svg>
