<svg width="7" height="10" viewBox="0 0 7 10" fill="none" xmlns="http://www.w3.org/2000/svg">
<path d="M3.82332 4.68727L3.90771 2.69647L3.81854 0.727978L3.73271 2.69668L3.82332 4.68727ZM3.82276 5.38768L3.73837 7.37848L3.82895 9.34867L3.91337 7.37827L3.82276 5.38768ZM3.67917 4.73505L2.93223 2.95945L2.04403 1.30642L2.78116 3.06503L3.67917 4.73505ZM3.96831 5.3416L4.71385 7.1172L5.60345 8.76853L4.86492 7.00992L3.96831 5.3416ZM3.57293 4.86268L2.19682 3.77804L0.746743 2.88729L2.10884 3.96174L3.57293 4.86268ZM4.07315 5.21397L5.45066 6.29861L6.90074 7.18936L5.53724 6.11491L4.07315 5.21397Z" fill="#314294"/>
</svg>
