<svg width="39" height="32" viewBox="0 0 39 32" fill="none" xmlns="http://www.w3.org/2000/svg">
<path d="M37.05 19.1997H35.1V3.19996H37.05C37.5672 3.19996 38.0632 3.03139 38.4289 2.73133C38.7946 2.43128 39 2.02432 39 1.59998C39 1.17564 38.7946 0.768677 38.4289 0.468623C38.0632 0.168569 37.5672 0 37.05 0H1.95C1.43283 0 0.936838 0.168569 0.571142 0.468623C0.205446 0.768677 0 1.17564 0 1.59998C0 2.02432 0.205446 2.43128 0.571142 2.73133C0.936838 3.03139 1.43283 3.19996 1.95 3.19996H3.9V19.1997H1.95C1.43283 19.1997 0.936838 19.3683 0.571142 19.6684C0.205446 19.9684 0 20.3754 0 20.7997C0 21.224 0.205446 21.631 0.571142 21.9311C0.936838 22.2311 1.43283 22.3997 1.95 22.3997H17.55V24.2397L8.6775 29.0396C8.3135 29.2245 8.03376 29.5025 7.88145 29.8307C7.72913 30.159 7.71271 30.5193 7.8347 30.856C7.95669 31.1927 8.21033 31.487 8.55647 31.6937C8.90261 31.9004 9.32203 32.0079 9.75 31.9996C10.1334 32.0031 10.5085 31.908 10.8225 31.7276L17.55 28.0796V30.3996C17.55 30.8239 17.7554 31.2309 18.1211 31.5309C18.4868 31.831 18.9828 31.9996 19.5 31.9996C20.0172 31.9996 20.5132 31.831 20.8789 31.5309C21.2446 31.2309 21.45 30.8239 21.45 30.3996V28.0796L28.1775 31.7276C28.4915 31.908 28.8666 32.0031 29.25 31.9996C29.6666 31.9969 30.0712 31.8849 30.4046 31.6798C30.738 31.4748 30.9825 31.1875 31.1024 30.8601C31.2223 30.5328 31.2113 30.1825 31.071 29.8606C30.9306 29.5388 30.6683 29.2622 30.3225 29.0716L21.45 24.2717V22.3997H37.05C37.5672 22.3997 38.0632 22.2311 38.4289 21.9311C38.7946 21.631 39 21.224 39 20.7997C39 20.3754 38.7946 19.9684 38.4289 19.6684C38.0632 19.3683 37.5672 19.1997 37.05 19.1997ZM31.2 19.1997H7.8V3.19996H31.2V19.1997ZM14.8395 16.4158C15.3592 16.6677 15.9518 16.8006 16.5555 16.8006C17.1592 16.8006 17.7518 16.6677 18.2715 16.4158L24.1215 13.6318C24.6216 13.38 25.0347 13.0271 25.3212 12.6069C25.6078 12.1868 25.7582 11.7133 25.7582 11.2318C25.7582 10.7504 25.6078 10.2769 25.3212 9.85677C25.0347 9.4366 24.6216 9.08373 24.1215 8.83188L18.2715 6.04792C17.7518 5.79597 17.1592 5.66306 16.5555 5.66306C15.9518 5.66306 15.3592 5.79597 14.8395 6.04792C14.3158 6.29015 13.8816 6.64405 13.583 7.07217C13.2843 7.50028 13.1323 7.98668 13.143 8.47988V14.0478C13.1463 14.5302 13.3049 15.0033 13.6028 15.4191C13.9008 15.835 14.3274 16.1788 14.8395 16.4158ZM17.043 9.08787L21.45 11.1998L17.004 13.3118L17.043 9.08787Z" fill="#35F9AC"/>
</svg>
