<svg width="39" height="45" viewBox="0 0 39 45" fill="none" xmlns="http://www.w3.org/2000/svg">
<path d="M31.3653 31.1361V19.7894C31.3653 12.8225 28.1242 6.99031 22.4721 5.44716V3.90401C22.4721 2.02046 21.1283 0.5 19.488 0.5C17.8477 0.5 16.5434 2.02046 16.5434 3.90401V5.44716C10.8715 6.99031 7.65022 12.7998 7.65022 19.7894V31.1361L5.08109 34.0635C3.83605 35.4932 4.7056 37.9441 6.46447 37.9441H32.4917C34.2506 37.9441 35.1399 35.4932 33.8949 34.0635L31.3653 31.1361ZM19.488 44.7521C21.6619 44.7521 23.4405 42.7097 23.4405 40.2134H15.5355C15.5355 42.7097 17.2943 44.7521 19.488 44.7521ZM9.17193 5.56062C10.002 4.69828 10.0217 3.22321 9.23122 2.31547C8.48025 1.45312 7.25497 1.43043 6.48423 2.27008C3.10483 5.81025 0.772855 10.6212 0.021879 16.0223C-0.155984 17.4066 0.772856 18.6547 1.99813 18.6547C2.94673 18.6547 3.77676 17.8604 3.93486 16.7712C4.52774 12.3686 6.42494 8.44268 9.17193 5.56062ZM32.551 2.27008C31.7605 1.43043 30.5352 1.45312 29.7843 2.31547C28.9938 3.22321 29.0333 4.67558 29.8435 5.53793C32.5708 8.41999 34.4877 12.3459 35.0806 16.7485C35.219 17.8377 36.049 18.632 37.0174 18.632C38.2229 18.632 39.1715 17.3839 38.9738 15.9996C38.2229 10.6212 35.9106 5.83294 32.551 2.27008Z" fill="white"/>
</svg>
