<svg width="43" height="47" viewBox="0 0 43 47" fill="none" xmlns="http://www.w3.org/2000/svg">
<path d="M21.4973 0C9.62663 0 1.24068e-05 10.7289 1.24068e-05 23.9641C-0.00483751 28.9871 1.41233 33.8847 4.05123 37.9649C6.69013 42.0451 10.4173 45.1014 14.706 46.7019C15.781 46.9227 16.1734 46.1828 16.1734 45.5472C16.1734 44.9774 16.1546 43.4707 16.1438 41.4717C10.1641 42.9187 8.90101 38.2584 8.90101 38.2584C7.92544 35.4896 6.51451 34.7527 6.51451 34.7527C4.5607 33.2669 6.65963 33.2967 6.65963 33.2967C8.81769 33.4668 9.95182 35.7671 9.95182 35.7671C11.8707 39.4279 14.9855 38.3718 16.211 37.7571C16.4045 36.2087 16.9608 35.1525 17.5763 34.5528C12.8033 33.9471 7.78301 31.8914 7.78301 22.711C7.78301 20.0944 8.62151 17.9552 9.99751 16.2784C9.77444 15.6727 9.03807 13.2351 10.2071 9.93829C10.2071 9.93829 12.0131 9.29383 16.1196 12.3938C17.8739 11.8615 19.6841 11.5906 21.5027 11.5882C23.3214 11.5922 25.1315 11.8641 26.8857 12.3968C30.9896 9.29682 32.7929 9.94127 32.7929 9.94127C33.9646 13.2411 33.2282 15.6757 33.0079 16.2814C34.3866 17.9581 35.217 20.0974 35.217 22.714C35.217 31.9183 30.1914 33.9441 25.4022 34.5379C26.1736 35.2778 26.8616 36.7397 26.8616 38.9744C26.8616 42.1788 26.8347 44.7626 26.8347 45.5472C26.8347 46.1887 27.2217 46.9346 28.3128 46.6989C32.5973 45.0946 36.3199 42.0371 38.9551 37.9579C41.5903 33.8788 43.0052 28.9839 43 23.9641C43 10.7289 33.3734 0 21.4973 0Z" fill="white"/>
</svg>
