<svg width="53" height="58" viewBox="0 0 53 58" fill="none" xmlns="http://www.w3.org/2000/svg">
<path d="M26.2871 21.8992C25.0118 21.8992 23.7652 22.3128 22.7048 23.0876C21.6444 23.8625 20.818 24.9638 20.3299 26.2523C19.8419 27.5408 19.7142 28.9587 19.963 30.3265C20.2118 31.6944 20.8259 32.9509 21.7277 33.9371C22.6295 34.9233 23.7784 35.5949 25.0292 35.867C26.28 36.1391 27.5764 35.9994 28.7547 35.4657C29.9329 34.932 30.9399 34.0281 31.6484 32.8685C32.3569 31.7089 32.7351 30.3455 32.7351 28.9508C32.7351 28.0248 32.5683 27.1078 32.2443 26.2523C31.9202 25.3968 31.4453 24.6194 30.8465 23.9646C30.2478 23.3098 29.537 22.7904 28.7547 22.436C27.9723 22.0816 27.1339 21.8992 26.2871 21.8992ZM52.1051 14.9329C52.0914 12.7371 51.7217 10.5614 51.0131 8.5068C50.4912 7.00338 49.6838 5.63807 48.644 4.50097C47.6043 3.36388 46.3558 2.48083 44.9811 1.91011C43.1024 1.13518 41.1129 0.730842 39.1051 0.715883C35.7511 0.516846 34.7631 0.516846 26.2871 0.516846C17.8111 0.516846 16.8231 0.516846 13.4691 0.715883C11.4613 0.730842 9.47179 1.13518 7.59311 1.91011C6.21839 2.48083 4.96995 3.36388 3.93019 4.50097C2.89043 5.63807 2.08298 7.00338 1.56111 8.5068C0.852515 10.5614 0.482788 12.7371 0.469109 14.9329C0.287109 18.6009 0.287109 19.6814 0.287109 28.9508C0.287109 38.2203 0.287109 39.3008 0.469109 42.9688C0.497095 45.1723 0.866323 47.3547 1.56111 49.4233C2.08066 50.9199 2.88744 52.2772 3.92711 53.4041C4.96241 54.548 6.21352 55.431 7.59311 55.9916C9.47179 56.7665 11.4613 57.1708 13.4691 57.1858C16.8231 57.3848 17.8111 57.3848 26.2871 57.3848C34.7631 57.3848 35.7511 57.3848 39.1051 57.1858C41.1129 57.1708 43.1024 56.7665 44.9811 55.9916C46.3607 55.431 47.6118 54.548 48.6471 53.4041C49.6868 52.2772 50.4936 50.9199 51.0131 49.4233C51.721 47.3587 52.0907 45.1738 52.1051 42.9688C52.2871 39.3008 52.2871 38.2203 52.2871 28.9508C52.2871 19.6814 52.2871 18.6009 52.1051 14.9329ZM45.5011 37.6801C45.4177 39.4347 45.0752 41.1631 44.4871 42.7982C43.9824 44.1621 43.232 45.4011 42.2806 46.4416C41.3292 47.482 40.1963 48.3026 38.9491 48.8546C37.4398 49.462 35.8506 49.798 34.2431 49.8498C32.1891 49.8498 31.6431 49.8498 26.2871 49.8498C20.9311 49.8498 20.3851 49.8498 18.3311 49.8498C16.7236 49.798 15.1344 49.462 13.6251 48.8546C12.3358 48.3306 11.1714 47.4947 10.2191 46.4093C9.27704 45.3892 8.5495 44.157 8.08711 42.7982C7.52956 41.1493 7.23069 39.4094 7.20311 37.6516C7.20311 35.4054 7.20311 34.8082 7.20311 28.9508C7.20311 23.0934 7.20311 22.4963 7.20311 20.25C7.23069 18.4923 7.52956 16.7523 8.08711 15.1035C8.56624 13.6935 9.33062 12.4201 10.3231 11.3786C11.26 10.3539 12.3856 9.55912 13.6251 9.04704C15.1344 8.43971 16.7236 8.10363 18.3311 8.05185C20.3851 8.05185 20.9311 8.05185 26.2871 8.05185C31.6431 8.05185 32.1891 8.05185 34.2431 8.05185C35.8506 8.10363 37.4398 8.43971 38.9491 9.04704C40.2384 9.57103 41.4028 10.407 42.3551 11.4924C43.2972 12.5124 44.0247 13.7447 44.4871 15.1035C45.0425 16.754 45.3498 18.492 45.3971 20.25C45.3971 22.4963 45.3971 23.0934 45.3971 28.9508C45.3971 34.8082 45.5791 35.4054 45.5011 37.6516V37.6801ZM41.3411 16.5252C41.0315 15.6067 40.5435 14.7726 39.9106 14.0805C39.2776 13.3883 38.5149 12.8545 37.6751 12.516C36.5219 12.0788 35.3074 11.8671 34.0871 11.8904C32.0591 11.8904 31.4871 11.8904 26.2871 11.8904C21.0871 11.8904 20.5151 11.8904 18.4871 11.8904C17.2606 11.9036 16.0459 12.1538 14.8991 12.6297C14.0721 12.9529 13.3175 13.4649 12.6854 14.1316C12.0533 14.7984 11.5583 15.6046 11.2331 16.4967C10.8555 17.7631 10.6711 19.0888 10.6871 20.4206C10.6871 22.6385 10.6871 23.264 10.6871 28.9508C10.6871 34.6376 10.6871 35.2632 10.6871 37.481C10.7129 38.8208 10.9413 40.1467 11.3631 41.4049C11.6727 42.3234 12.1607 43.1575 12.7937 43.8496C13.4266 44.5418 14.1893 45.0756 15.0291 45.4141C16.1384 45.8603 17.3058 46.1099 18.4871 46.1534C20.5151 46.1534 21.0871 46.1534 26.2871 46.1534C31.4871 46.1534 32.0591 46.1534 34.0871 46.1534C35.3136 46.1403 36.5283 45.89 37.6751 45.4141C38.5149 45.0756 39.2776 44.5418 39.9106 43.8496C40.5435 43.1575 41.0315 42.3234 41.3411 41.4049C41.7763 40.1508 42.0051 38.8224 42.0171 37.481C42.0171 35.2632 42.0171 34.6376 42.0171 28.9508C42.0171 23.264 42.0171 22.6385 42.0171 20.4206C42.0179 19.078 41.7886 17.7471 41.3411 16.4967V16.5252ZM26.2871 39.8126C24.984 39.8126 23.6938 39.5315 22.4902 38.9853C21.2867 38.4391 20.1935 37.6385 19.2733 36.6296C18.3531 35.6206 17.624 34.423 17.1277 33.1053C16.6314 31.7877 16.3777 30.3759 16.3811 28.9508C16.3811 26.8014 16.9643 24.7002 18.0568 22.9134C19.1493 21.1266 20.702 19.7344 22.5183 18.9132C24.3347 18.0919 26.333 17.8785 28.2603 18.2999C30.1877 18.7213 31.9573 19.7586 33.3453 21.2805C34.7333 22.8024 35.6771 24.7404 36.0574 26.8493C36.4377 28.9581 36.2373 31.143 35.4816 33.1272C34.7259 35.1114 33.4488 36.8058 31.8121 37.9959C30.1754 39.186 28.2526 39.8182 26.2871 39.8126ZM36.6871 20.2216C36.1124 20.1551 35.5805 19.8583 35.1939 19.3884C34.8073 18.9185 34.5934 18.3088 34.5934 17.6768C34.5934 17.0447 34.8073 16.435 35.1939 15.9651C35.5805 15.4952 36.1124 15.1984 36.6871 15.1319C37.2619 15.1984 37.7938 15.4952 38.1803 15.9651C38.5669 16.435 38.7808 17.0447 38.7808 17.6768C38.7808 18.3088 38.5669 18.9185 38.1803 19.3884C37.7938 19.8583 37.2619 20.1551 36.6871 20.2216Z" fill="white"/>
</svg>
