<svg width="7" height="35" viewBox="0 0 7 35" fill="none" xmlns="http://www.w3.org/2000/svg">
<path d="M3.5 7.77778C2.80777 7.77778 2.13108 7.5497 1.55551 7.12238C0.979934 6.69507 0.53133 6.08771 0.266423 5.3771C0.00151682 4.6665 -0.0677948 3.88458 0.0672536 3.13021C0.202302 2.37584 0.535645 1.6829 1.02513 1.13903C1.51461 0.59516 2.13825 0.224779 2.81718 0.0747256C3.49612 -0.075328 4.19985 0.00168498 4.83939 0.296026C5.47893 0.590366 6.02556 1.08881 6.41014 1.72834C6.79473 2.36786 7 3.11974 7 3.88889C7 4.92029 6.63125 5.90944 5.97487 6.63875C5.31849 7.36806 4.42826 7.77778 3.5 7.77778ZM3.5 27.2222C4.19223 27.2222 4.86892 27.4503 5.44449 27.8776C6.02007 28.3049 6.46867 28.9123 6.73358 29.6229C6.99848 30.3335 7.0678 31.1154 6.93275 31.8698C6.7977 32.6242 6.46436 33.3171 5.97487 33.861C5.48539 34.4048 4.86175 34.7752 4.18282 34.9253C3.50388 35.0753 2.80015 34.9983 2.16061 34.704C1.52107 34.4096 0.974443 33.9112 0.589859 33.2717C0.205274 32.6321 2.86102e-06 31.8803 2.86102e-06 31.1111C2.86102e-06 30.0797 0.368752 29.0906 1.02513 28.3612C1.68151 27.6319 2.57174 27.2222 3.5 27.2222ZM3.5 13.6111C4.19223 13.6111 4.86892 13.8392 5.44449 14.2665C6.02007 14.6938 6.46867 15.3012 6.73358 16.0118C6.99848 16.7224 7.0678 17.5043 6.93275 18.2587C6.7977 19.0131 6.46436 19.706 5.97487 20.2499C5.48539 20.7937 4.86175 21.1641 4.18282 21.3142C3.50388 21.4642 2.80015 21.3872 2.16061 21.0929C1.52107 20.7985 0.974443 20.3001 0.589859 19.6605C0.205274 19.021 2.86102e-06 18.2691 2.86102e-06 17.5C2.86102e-06 16.4686 0.368752 15.4794 1.02513 14.7501C1.68151 14.0208 2.57174 13.6111 3.5 13.6111Z" fill="#35F9AC"/>
</svg>
