<svg width="39" height="45" viewBox="0 0 39 45" fill="none" xmlns="http://www.w3.org/2000/svg">
<path d="M31.3653 30.6361V19.2894C31.3653 12.3225 28.1242 6.49031 22.4721 4.94716V3.40401C22.4721 1.52046 21.1283 0 19.488 0C17.8477 0 16.5434 1.52046 16.5434 3.40401V4.94716C10.8715 6.49031 7.65022 12.2998 7.65022 19.2894V30.6361L5.08109 33.5635C3.83605 34.9932 4.7056 37.4441 6.46447 37.4441H32.4917C34.2506 37.4441 35.1399 34.9932 33.8949 33.5635L31.3653 30.6361ZM19.488 44.2521C21.6619 44.2521 23.4405 42.2097 23.4405 39.7134H15.5355C15.5355 42.2097 17.2943 44.2521 19.488 44.2521ZM9.17193 5.06062C10.002 4.19828 10.0217 2.72321 9.23122 1.81547C8.48025 0.953122 7.25497 0.930429 6.48423 1.77008C3.10483 5.31025 0.772855 10.1212 0.021879 15.5223C-0.155984 16.9066 0.772856 18.1547 1.99813 18.1547C2.94673 18.1547 3.77676 17.3604 3.93486 16.2712C4.52774 11.8686 6.42494 7.94268 9.17193 5.06062ZM32.551 1.77008C31.7605 0.930429 30.5352 0.953122 29.7843 1.81547C28.9938 2.72321 29.0333 4.17558 29.8435 5.03793C32.5708 7.91999 34.4877 11.8459 35.0806 16.2485C35.219 17.3377 36.049 18.132 37.0174 18.132C38.2229 18.132 39.1715 16.8839 38.9738 15.4996C38.2229 10.1212 35.9106 5.33294 32.551 1.77008Z" fill="white"/>
</svg>
