<svg width="32" height="29" viewBox="0 0 32 29" fill="none" xmlns="http://www.w3.org/2000/svg">
<path d="M16 0.973389C7.16154 0.973389 0 7.0253 0 14.4943C0 21.9633 7.16154 28.0152 16 28.0152C24.8385 28.0152 32 21.9633 32 14.4943C32 7.0253 24.8385 0.973389 16 0.973389ZM13.5308 19.2851C13.3462 19.4411 13.0846 19.5711 12.8538 19.5711C12.6231 19.5711 12.3615 19.4346 12.1692 19.2786L7.86154 15.6384L9.23077 14.4813L12.8615 17.5495L22.4615 9.37846L23.8077 10.555L13.5308 19.2851Z" fill="#35F9AC"/>
<path d="M16 0.973389C7.16154 0.973389 0 7.0253 0 14.4943C0 21.9633 7.16154 28.0152 16 28.0152C24.8385 28.0152 32 21.9633 32 14.4943C32 7.0253 24.8385 0.973389 16 0.973389ZM13.5308 19.2851C13.3462 19.4411 13.0846 19.5711 12.8538 19.5711C12.6231 19.5711 12.3615 19.4346 12.1692 19.2786L7.86154 15.6384L9.23077 14.4813L12.8615 17.5495L22.4615 9.37846L23.8077 10.555L13.5308 19.2851Z" fill="#35F9AC"/>
<path d="M16 0.973389C7.16154 0.973389 0 7.0253 0 14.4943C0 21.9633 7.16154 28.0152 16 28.0152C24.8385 28.0152 32 21.9633 32 14.4943C32 7.0253 24.8385 0.973389 16 0.973389ZM13.5308 19.2851C13.3462 19.4411 13.0846 19.5711 12.8538 19.5711C12.6231 19.5711 12.3615 19.4346 12.1692 19.2786L7.86154 15.6384L9.23077 14.4813L12.8615 17.5495L22.4615 9.37846L23.8077 10.555L13.5308 19.2851Z" fill="#35F9AC"/>
<path d="M16 0.973389C7.16154 0.973389 0 7.0253 0 14.4943C0 21.9633 7.16154 28.0152 16 28.0152C24.8385 28.0152 32 21.9633 32 14.4943C32 7.0253 24.8385 0.973389 16 0.973389ZM13.5308 19.2851C13.3462 19.4411 13.0846 19.5711 12.8538 19.5711C12.6231 19.5711 12.3615 19.4346 12.1692 19.2786L7.86154 15.6384L9.23077 14.4813L12.8615 17.5495L22.4615 9.37846L23.8077 10.555L13.5308 19.2851Z" fill="#35F9AC"/>
<path d="M16 0.973389C7.16154 0.973389 0 7.0253 0 14.4943C0 21.9633 7.16154 28.0152 16 28.0152C24.8385 28.0152 32 21.9633 32 14.4943C32 7.0253 24.8385 0.973389 16 0.973389ZM13.5308 19.2851C13.3462 19.4411 13.0846 19.5711 12.8538 19.5711C12.6231 19.5711 12.3615 19.4346 12.1692 19.2786L7.86154 15.6384L9.23077 14.4813L12.8615 17.5495L22.4615 9.37846L23.8077 10.555L13.5308 19.2851Z" fill="#35F9AC"/>
</svg>
