<svg width="40" height="45" viewBox="0 0 40 45" fill="none" xmlns="http://www.w3.org/2000/svg">
<path d="M32.2012 30.6361V19.2894C32.2012 12.3225 28.9601 6.49031 23.3081 4.94716V3.40401C23.3081 1.52046 21.9642 0 20.3239 0C18.6836 0 17.3793 1.52046 17.3793 3.40401V4.94716C11.7074 6.49031 8.48616 12.2998 8.48616 19.2894V30.6361L5.91703 33.5635C4.67199 34.9932 5.54154 37.4441 7.3004 37.4441H33.3277C35.0865 37.4441 35.9758 34.9932 34.7308 33.5635L32.2012 30.6361ZM20.3239 44.2521C22.4978 44.2521 24.2764 42.2097 24.2764 39.7134H16.3714C16.3714 42.2097 18.1303 44.2521 20.3239 44.2521ZM10.0079 5.06062C10.8379 4.19828 10.8577 2.72321 10.0672 1.81547C9.31618 0.953122 8.09091 0.930429 7.32017 1.77008C3.94077 5.31025 1.60879 10.1212 0.857816 15.5223C0.679954 16.9066 1.60879 18.1547 2.83407 18.1547C3.78267 18.1547 4.6127 17.3604 4.7708 16.2712C5.36368 11.8686 7.26088 7.94268 10.0079 5.06062ZM33.387 1.77008C32.5965 0.930429 31.3712 0.953122 30.6202 1.81547C29.8297 2.72321 29.8692 4.17558 30.6795 5.03793C33.4067 7.91999 35.3237 11.8459 35.9166 16.2485C36.0549 17.3377 36.8849 18.132 37.8533 18.132C39.0588 18.132 40.0074 16.8839 39.8098 15.4996C39.0588 10.1212 36.7466 5.33294 33.387 1.77008Z" fill="white"/>
</svg>
