<svg width="8" height="9" viewBox="0 0 8 9" fill="none" xmlns="http://www.w3.org/2000/svg">
<path d="M3.98738 4.18706L4.07178 2.19626L3.9826 0.227764L3.89678 2.19647L3.98738 4.18706ZM3.98683 4.88746L3.90243 6.87827L3.99301 8.84846L4.07743 6.87805L3.98683 4.88746ZM3.84324 4.23484L3.09629 2.45924L2.2081 0.806207L2.94522 2.56482L3.84324 4.23484ZM4.13237 4.84139L4.87791 6.61699L5.76751 8.26832L5.02898 6.50971L4.13237 4.84139ZM3.73699 4.36246L2.36088 3.27782L0.910805 2.38707L2.2729 3.46153L3.73699 4.36246ZM4.23722 4.71376L5.61473 5.7984L7.0648 6.68915L5.70131 5.61469L4.23722 4.71376Z" fill="#314294"/>
</svg>
