<svg width="50" height="58" viewBox="0 0 50 58" fill="none" xmlns="http://www.w3.org/2000/svg">
<path d="M24.5468 0.516846C18.7292 0.517133 13.1016 2.98062 8.6708 7.46651C4.24001 11.9524 1.29521 18.168 0.363316 25.0011C-0.568579 31.8342 0.573242 38.8389 3.58447 44.7619C6.5957 50.6848 11.2798 55.1396 16.7987 57.329C18.0237 57.5842 18.4831 56.7096 18.4831 55.9442C18.4831 55.2519 18.4525 52.956 18.4525 50.5145C12.2969 51.8628 10.7044 48.729 10.2144 47.0891C9.67066 45.4942 8.80875 44.0808 7.70314 42.9711C6.84564 42.4245 5.62065 41.0762 7.67249 41.0398C8.45596 41.1409 9.2074 41.4653 9.86312 41.9855C10.5188 42.5057 11.0595 43.2062 11.4394 44.0279C11.7744 44.7442 12.225 45.3748 12.7653 45.8835C13.3055 46.3922 13.9248 46.7691 14.5877 46.9925C15.2505 47.2159 15.9439 47.2815 16.6281 47.1855C17.3123 47.0895 17.9739 46.8338 18.5749 46.433C18.6809 44.9509 19.236 43.5652 20.1368 42.5339C14.6856 41.8051 8.98938 39.2905 8.98938 28.1395C8.95495 25.2421 9.85345 22.4389 11.5006 20.3046C10.7516 17.7864 10.8392 15.0229 11.7456 12.579C11.7456 12.579 13.7974 11.8137 18.4831 15.5672C22.4919 14.2553 26.7241 14.2553 30.733 15.5672C35.4185 11.7773 37.4704 12.579 37.4704 12.579C38.3769 15.0229 38.4646 17.7865 37.7154 20.3046C39.3675 22.4352 40.2668 25.2409 40.2267 28.1395C40.2267 39.327 34.4998 41.8051 29.0486 42.5339C29.6333 43.2391 30.0836 44.0857 30.369 45.0163C30.6543 45.9469 30.768 46.9397 30.7024 47.9272C30.7024 51.8265 30.6717 54.9604 30.6717 55.9444C30.6717 56.7097 31.1311 57.6207 32.3561 57.3291C37.8653 55.1219 42.5359 50.6567 45.5343 44.7307C48.5327 38.8046 49.6637 31.8035 48.7253 24.977C47.787 18.1506 44.8404 11.943 40.4116 7.46262C35.9827 2.98218 30.3599 0.520446 24.5468 0.516846Z" fill="white"/>
</svg>
