<svg width="36" height="21" viewBox="0 0 36 21" fill="none" xmlns="http://www.w3.org/2000/svg">
<path d="M35.7749 9.83406C35.632 9.61942 35.4178 9.42333 35.1446 9.25703L20.1384 0.514237C19.8585 0.351204 19.5263 0.221879 19.1607 0.133646C18.7951 0.0454134 18.4032 0 18.0075 0C17.2082 0 16.4417 0.184977 15.8766 0.514237C15.5968 0.67727 15.3748 0.870818 15.2233 1.08383C15.0719 1.29684 14.994 1.52515 14.994 1.75571C14.994 2.22136 15.3115 2.66793 15.8766 2.99719L25.7807 8.74995H3.00125C2.20527 8.74995 1.44189 8.93417 0.879046 9.26209C0.316202 9.59001 0 10.0348 0 10.4985C0 10.9623 0.316202 11.407 0.879046 11.7349C1.44189 12.0628 2.20527 12.2471 3.00125 12.2471H25.7807L15.8766 17.9998C15.5953 18.1624 15.372 18.3558 15.2197 18.5688C15.0673 18.7819 14.9888 19.0105 14.9888 19.2413C14.9888 19.4721 15.0673 19.7007 15.2197 19.9138C15.372 20.1268 15.5953 20.3202 15.8766 20.4828C16.1556 20.6467 16.4875 20.7768 16.8533 20.8655C17.219 20.9543 17.6113 21 18.0075 21C18.4037 21 18.796 20.9543 19.1617 20.8655C19.5274 20.7768 19.8594 20.6467 20.1384 20.4828L35.1446 11.74C35.4178 11.5737 35.632 11.3776 35.7749 11.163C36.075 10.7373 36.075 10.2598 35.7749 9.83406Z" fill="#35F9AC"/>
</svg>
