<svg width="32" height="28" viewBox="0 0 32 28" fill="none" xmlns="http://www.w3.org/2000/svg">
<path d="M16 0.041748C7.16154 0.041748 0 6.09366 0 13.5627C0 21.0317 7.16154 27.0836 16 27.0836C24.8385 27.0836 32 21.0317 32 13.5627C32 6.09366 24.8385 0.041748 16 0.041748ZM13.5308 18.3535C13.3462 18.5095 13.0846 18.6395 12.8538 18.6395C12.6231 18.6395 12.3615 18.503 12.1692 18.347L7.86154 14.7067L9.23077 13.5497L12.8615 16.6179L22.4615 8.44682L23.8077 9.62339L13.5308 18.3535Z" fill="#35F9AC"/>
<path d="M16 0.041748C7.16154 0.041748 0 6.09366 0 13.5627C0 21.0317 7.16154 27.0836 16 27.0836C24.8385 27.0836 32 21.0317 32 13.5627C32 6.09366 24.8385 0.041748 16 0.041748ZM13.5308 18.3535C13.3462 18.5095 13.0846 18.6395 12.8538 18.6395C12.6231 18.6395 12.3615 18.503 12.1692 18.347L7.86154 14.7067L9.23077 13.5497L12.8615 16.6179L22.4615 8.44682L23.8077 9.62339L13.5308 18.3535Z" fill="#35F9AC"/>
<path d="M16 0.041748C7.16154 0.041748 0 6.09366 0 13.5627C0 21.0317 7.16154 27.0836 16 27.0836C24.8385 27.0836 32 21.0317 32 13.5627C32 6.09366 24.8385 0.041748 16 0.041748ZM13.5308 18.3535C13.3462 18.5095 13.0846 18.6395 12.8538 18.6395C12.6231 18.6395 12.3615 18.503 12.1692 18.347L7.86154 14.7067L9.23077 13.5497L12.8615 16.6179L22.4615 8.44682L23.8077 9.62339L13.5308 18.3535Z" fill="#35F9AC"/>
<path d="M16 0.041748C7.16154 0.041748 0 6.09366 0 13.5627C0 21.0317 7.16154 27.0836 16 27.0836C24.8385 27.0836 32 21.0317 32 13.5627C32 6.09366 24.8385 0.041748 16 0.041748ZM13.5308 18.3535C13.3462 18.5095 13.0846 18.6395 12.8538 18.6395C12.6231 18.6395 12.3615 18.503 12.1692 18.347L7.86154 14.7067L9.23077 13.5497L12.8615 16.6179L22.4615 8.44682L23.8077 9.62339L13.5308 18.3535Z" fill="#35F9AC"/>
<path d="M16 0.041748C7.16154 0.041748 0 6.09366 0 13.5627C0 21.0317 7.16154 27.0836 16 27.0836C24.8385 27.0836 32 21.0317 32 13.5627C32 6.09366 24.8385 0.041748 16 0.041748ZM13.5308 18.3535C13.3462 18.5095 13.0846 18.6395 12.8538 18.6395C12.6231 18.6395 12.3615 18.503 12.1692 18.347L7.86154 14.7067L9.23077 13.5497L12.8615 16.6179L22.4615 8.44682L23.8077 9.62339L13.5308 18.3535Z" fill="#35F9AC"/>
</svg>
