<svg width="30" height="29" viewBox="0 0 30 29" fill="none" xmlns="http://www.w3.org/2000/svg">
<path d="M20.1095 18.5242C21.7423 16.5653 22.7735 14.0529 22.7735 11.2849C22.7735 5.06755 17.6602 0 11.3868 0C5.1133 0 0 5.06755 0 11.2849C0 17.5022 5.1133 22.5698 11.3868 22.5698C14.1368 22.5698 16.7149 21.5903 18.6915 19.9295L27.5431 28.7019C27.7579 28.9148 28.0157 29 28.2736 29C28.5314 29 28.7892 28.9148 29.004 28.7019C29.3907 28.3187 29.3907 27.6373 29.004 27.254L20.1095 18.5242ZM11.3438 20.5257C6.18753 20.5257 2.01954 16.395 2.01954 11.2849C2.01954 6.17474 6.18753 2.04405 11.3438 2.04405C16.5001 2.04405 20.6681 6.17474 20.6681 11.2849C20.6681 16.395 16.5001 20.5257 11.3438 20.5257Z" fill="white"/>
</svg>
