<svg width="53" height="57" viewBox="0 0 53 57" fill="none" xmlns="http://www.w3.org/2000/svg">
<path d="M26.377 21.4671C25.1017 21.4671 23.855 21.8806 22.7946 22.6555C21.7343 23.4303 20.9078 24.5316 20.4198 25.8202C19.9317 27.1087 19.8041 28.5265 20.0528 29.8944C20.3016 31.2623 20.9158 32.5188 21.8175 33.505C22.7193 34.4912 23.8682 35.1628 25.119 35.4348C26.3698 35.7069 27.6663 35.5673 28.8445 35.0336C30.0227 34.4998 31.0298 33.596 31.7383 32.4364C32.4468 31.2767 32.825 29.9134 32.825 28.5187C32.825 27.5927 32.6582 26.6757 32.3341 25.8202C32.0101 24.9646 31.5351 24.1873 30.9364 23.5325C30.3376 22.8776 29.6268 22.3582 28.8445 22.0038C28.0622 21.6495 27.2237 21.4671 26.377 21.4671ZM52.195 14.5008C52.1813 12.305 51.8115 10.1292 51.103 8.07467C50.5811 6.57125 49.7736 5.20595 48.7339 4.06885C47.6941 2.93175 46.4457 2.0487 45.071 1.47798C43.1923 0.703053 41.2028 0.298714 39.195 0.283755C35.841 0.0847166 34.853 0.0847168 26.377 0.0847168C17.901 0.0847168 16.913 0.0847166 13.559 0.283755C11.5511 0.298714 9.56164 0.703053 7.68295 1.47798C6.30823 2.0487 5.0598 2.93175 4.02003 4.06885C2.98027 5.20595 2.17282 6.57125 1.65095 8.07467C0.942359 10.1292 0.572631 12.305 0.558953 14.5008C0.376953 18.1687 0.376953 19.2492 0.376953 28.5187C0.376953 37.7882 0.376953 38.8687 0.558953 42.5367C0.586939 44.7402 0.956166 46.9226 1.65095 48.9912C2.17051 50.4877 2.97729 51.8451 4.01695 52.9719C5.05226 54.1159 6.30337 54.9989 7.68295 55.5594C9.56164 56.3344 11.5511 56.7387 13.559 56.7537C16.913 56.9527 17.901 56.9527 26.377 56.9527C34.853 56.9527 35.841 56.9527 39.195 56.7537C41.2028 56.7387 43.1923 56.3344 45.071 55.5594C46.4505 54.9989 47.7017 54.1159 48.737 52.9719C49.7766 51.8451 50.5834 50.4877 51.103 48.9912C51.8109 46.9265 52.1805 44.7416 52.195 42.5367C52.377 38.8687 52.377 37.7882 52.377 28.5187C52.377 19.2492 52.377 18.1687 52.195 14.5008ZM45.591 37.2479C45.5075 39.0026 45.1651 40.731 44.577 42.3661C44.0722 43.73 43.3218 44.969 42.3705 46.0095C41.4191 47.0499 40.2861 47.8705 39.039 48.4225C37.5297 49.0298 35.9405 49.3659 34.333 49.4177C32.279 49.4177 31.733 49.4177 26.377 49.4177C21.021 49.4177 20.475 49.4177 18.421 49.4177C16.8135 49.3659 15.2242 49.0298 13.715 48.4225C12.4256 47.8985 11.2613 47.0626 10.309 45.9772C9.36689 44.9571 8.63935 43.7248 8.17695 42.3661C7.6194 40.7172 7.32053 38.9772 7.29295 37.2195C7.29295 34.9732 7.29295 34.3761 7.29295 28.5187C7.29295 22.6613 7.29295 22.0642 7.29295 19.8179C7.32053 18.0602 7.6194 16.3202 8.17695 14.6714C8.65608 13.2613 9.42047 11.988 10.413 10.9465C11.3498 9.92181 12.4754 9.12699 13.715 8.61491C15.2242 8.00758 16.8135 7.6715 18.421 7.61972C20.475 7.61972 21.021 7.61972 26.377 7.61972C31.733 7.61972 32.279 7.61972 34.333 7.61972C35.9405 7.6715 37.5297 8.00758 39.039 8.61491C40.3283 9.1389 41.4926 9.97484 42.445 11.0602C43.387 12.0803 44.1146 13.3126 44.577 14.6714C45.1323 16.3219 45.4396 18.0599 45.487 19.8179C45.487 22.0642 45.487 22.6613 45.487 28.5187C45.487 34.3761 45.669 34.9732 45.591 37.2195V37.2479ZM41.431 16.0931C41.1214 15.1746 40.6333 14.3405 40.0004 13.6483C39.3675 12.9562 38.6048 12.4224 37.7649 12.0839C36.6118 11.6467 35.3973 11.435 34.177 11.4583C32.149 11.4583 31.577 11.4583 26.377 11.4583C21.177 11.4583 20.605 11.4583 18.577 11.4583C17.3504 11.4714 16.1357 11.7217 14.989 12.1976C14.162 12.5208 13.4074 13.0327 12.7753 13.6995C12.1432 14.3662 11.6481 15.1725 11.323 16.0646C10.9454 17.331 10.7609 18.6566 10.777 19.9885C10.777 22.2064 10.777 22.8319 10.777 28.5187C10.777 34.2055 10.777 34.8311 10.777 37.0489C10.8027 38.3887 11.0312 39.7146 11.453 40.9728C11.7625 41.8913 12.2506 42.7253 12.8835 43.4175C13.5164 44.1097 14.2791 44.6434 15.119 44.982C16.2283 45.4282 17.3956 45.6777 18.577 45.7213C20.605 45.7213 21.177 45.7213 26.377 45.7213C31.577 45.7213 32.149 45.7213 34.177 45.7213C35.4035 45.7082 36.6182 45.4579 37.7649 44.982C38.6048 44.6434 39.3675 44.1097 40.0004 43.4175C40.6333 42.7253 41.1214 41.8913 41.431 40.9728C41.8661 39.7187 42.095 38.3902 42.1069 37.0489C42.1069 34.8311 42.1069 34.2055 42.1069 28.5187C42.1069 22.8319 42.1069 22.2064 42.1069 19.9885C42.1077 18.6459 41.8784 17.3149 41.431 16.0646V16.0931ZM26.377 39.3805C25.0739 39.3805 23.7836 39.0993 22.5801 38.5531C21.3765 38.0069 20.2833 37.2064 19.3631 36.1974C18.4429 35.1884 17.7138 33.9908 17.2175 32.6732C16.7212 31.3555 16.4675 29.9438 16.471 28.5187C16.471 26.3692 17.0541 24.2681 18.1466 22.4813C19.2391 20.6945 20.7918 19.3023 22.6082 18.481C24.4245 17.6598 26.4228 17.4463 28.3502 17.8678C30.2775 18.2892 32.0472 19.3265 33.4351 20.8484C34.8231 22.3703 35.767 24.3083 36.1473 26.4172C36.5276 28.526 36.3272 30.7108 35.5714 32.6951C34.8157 34.6793 33.5387 36.3737 31.9019 37.5638C30.2652 38.7539 28.3424 39.3861 26.377 39.3805ZM36.777 19.7895C36.2022 19.7229 35.6703 19.4261 35.2837 18.9563C34.8972 18.4864 34.6833 17.8767 34.6833 17.2446C34.6833 16.6126 34.8972 16.0029 35.2837 15.533C35.6703 15.0631 36.2022 14.7663 36.777 14.6998C37.3517 14.7663 37.8836 15.0631 38.2702 15.533C38.6567 16.0029 38.8706 16.6126 38.8706 17.2446C38.8706 17.8767 38.6567 18.4864 38.2702 18.9563C37.8836 19.4261 37.3517 19.7229 36.777 19.7895Z" fill="white"/>
</svg>
