<svg width="50" height="58" viewBox="0 0 50 58" fill="none" xmlns="http://www.w3.org/2000/svg">
<path d="M24.6366 0.516846C18.8191 0.517133 13.1914 2.98062 8.76064 7.46651C4.32985 11.9524 1.38505 18.168 0.45316 25.0011C-0.478735 31.8342 0.663085 38.8389 3.67431 44.7619C6.68554 50.6848 11.3697 55.1396 16.8886 57.329C18.1136 57.5842 18.573 56.7096 18.573 55.9442C18.573 55.2519 18.5423 52.956 18.5423 50.5145C12.3867 51.8628 10.7942 48.729 10.3042 47.0891C9.7605 45.4942 8.8986 44.0808 7.79298 42.9711C6.93549 42.4245 5.7105 41.0762 7.76233 41.0398C8.54581 41.1409 9.29724 41.4653 9.95296 41.9855C10.6087 42.5057 11.1494 43.2062 11.5292 44.0279C11.8643 44.7442 12.3149 45.3748 12.8551 45.8835C13.3954 46.3922 14.0147 46.7691 14.6775 46.9925C15.3404 47.2159 16.0338 47.2815 16.718 47.1855C17.4022 47.0895 18.0637 46.8338 18.6647 46.433C18.7708 44.9509 19.3259 43.5652 20.2266 42.5339C14.7754 41.8051 9.07922 39.2905 9.07922 28.1395C9.04479 25.2421 9.9433 22.4389 11.5905 20.3046C10.8415 17.7864 10.9291 15.0229 11.8355 12.579C11.8355 12.579 13.8872 11.8137 18.5729 15.5672C22.5818 14.2553 26.8139 14.2553 30.8228 15.5672C35.5084 11.7773 37.5603 12.579 37.5603 12.579C38.4668 15.0229 38.5544 17.7865 37.8053 20.3046C39.4574 22.4352 40.3567 25.2409 40.3165 28.1395C40.3165 39.327 34.5896 41.8051 29.1385 42.5339C29.7231 43.2391 30.1735 44.0857 30.4588 45.0163C30.7442 45.9469 30.8579 46.9397 30.7922 47.9272C30.7922 51.8265 30.7615 54.9604 30.7615 55.9444C30.7615 56.7097 31.2209 57.6207 32.4459 57.3291C37.9551 55.1219 42.6258 50.6567 45.6242 44.7307C48.6226 38.8046 49.7535 31.8035 48.8152 24.977C47.8768 18.1506 44.9302 11.943 40.5014 7.46262C36.0725 2.98218 30.4497 0.520446 24.6366 0.516846Z" fill="white"/>
</svg>
