<svg width="30" height="24" viewBox="0 0 30 24" fill="none" xmlns="http://www.w3.org/2000/svg">
<path d="M13.3216 8.66518H16.2819C16.6745 8.66518 17.051 8.78467 17.3286 8.99736C17.6062 9.21006 17.7621 9.49853 17.7621 9.79932C17.7621 10.1001 17.9181 10.3886 18.1956 10.6013C18.4732 10.814 18.8497 10.9335 19.2423 10.9335C19.6349 10.9335 20.0113 10.814 20.2889 10.6013C20.5665 10.3886 20.7225 10.1001 20.7225 9.79932C20.7225 8.89694 20.2546 8.03153 19.4219 7.39345C18.5891 6.75538 17.4596 6.39691 16.2819 6.39691H13.3216C12.1439 6.39691 11.0144 6.75538 10.1817 7.39345C9.3489 8.03153 8.88106 8.89694 8.88106 9.79932V14.3359C8.88106 15.2382 9.3489 16.1037 10.1817 16.7417C11.0144 17.3798 12.1439 17.7383 13.3216 17.7383H16.2819C17.4596 17.7383 18.5891 17.3798 19.4219 16.7417C20.2546 16.1037 20.7225 15.2382 20.7225 14.3359C20.7225 14.0351 20.5665 13.7466 20.2889 13.5339C20.0113 13.3212 19.6349 13.2017 19.2423 13.2017C18.8497 13.2017 18.4732 13.3212 18.1956 13.5339C17.9181 13.7466 17.7621 14.0351 17.7621 14.3359C17.7621 14.6367 17.6062 14.9251 17.3286 15.1378C17.051 15.3505 16.6745 15.47 16.2819 15.47H13.3216C12.929 15.47 12.5525 15.3505 12.2749 15.1378C11.9974 14.9251 11.8414 14.6367 11.8414 14.3359V9.79932C11.8414 9.49853 11.9974 9.21006 12.2749 8.99736C12.5525 8.78467 12.929 8.66518 13.3216 8.66518ZM14.8018 0.726227C11.8743 0.726227 9.01248 1.39139 6.57835 2.63759C4.14421 3.8838 2.24703 5.65508 1.12672 7.72744C0.00641336 9.7998 -0.286711 12.0802 0.284418 14.2802C0.855547 16.4802 2.26528 18.501 4.33534 20.0872C6.4054 21.6733 9.04282 22.7534 11.9141 23.191C14.7853 23.6286 17.7615 23.4041 20.4661 22.5457C23.1708 21.6873 25.4825 20.2336 27.109 18.3685C28.7354 16.5034 29.6035 14.3107 29.6035 12.0676C29.6035 10.5782 29.2207 9.10344 28.4768 7.72744C27.7329 6.35144 26.6427 5.10118 25.2682 4.04804C23.8937 2.99489 22.262 2.15949 20.4661 1.58954C18.6703 1.01958 16.7456 0.726227 14.8018 0.726227ZM14.8018 21.1407C12.4598 21.1407 10.1703 20.6086 8.22303 19.6116C6.27572 18.6146 4.75798 17.1976 3.86173 15.5397C2.96548 13.8818 2.73098 12.0575 3.18789 10.2975C3.64479 8.53751 4.77257 6.92084 6.42862 5.65195C8.08467 4.38305 10.1946 3.51892 12.4916 3.16884C14.7886 2.81875 17.1695 2.99843 19.3333 3.68515C21.497 4.37187 23.3464 5.53479 24.6475 7.02685C25.9487 8.51892 26.6432 10.2731 26.6432 12.0676C26.6432 14.4739 25.3956 16.7817 23.1749 18.4832C20.9542 20.1848 17.9423 21.1407 14.8018 21.1407Z" fill="white"/>
</svg>
