<svg width="30" height="23" viewBox="0 0 30 23" fill="none" xmlns="http://www.w3.org/2000/svg">
<path d="M13.3216 8.23302H16.2819C16.6745 8.23302 17.051 8.35251 17.3286 8.56521C17.6062 8.7779 17.7621 9.06637 17.7621 9.36716C17.7621 9.66795 17.9181 9.95642 18.1956 10.1691C18.4732 10.3818 18.8497 10.5013 19.2423 10.5013C19.6349 10.5013 20.0113 10.3818 20.2889 10.1691C20.5665 9.95642 20.7225 9.66795 20.7225 9.36716C20.7225 8.46479 20.2546 7.59937 19.4219 6.96129C18.5891 6.32322 17.4596 5.96475 16.2819 5.96475H13.3216C12.1439 5.96475 11.0144 6.32322 10.1817 6.96129C9.3489 7.59937 8.88106 8.46479 8.88106 9.36716V13.9037C8.88106 14.8061 9.3489 15.6715 10.1817 16.3096C11.0144 16.9477 12.1439 17.3061 13.3216 17.3061H16.2819C17.4596 17.3061 18.5891 16.9477 19.4219 16.3096C20.2546 15.6715 20.7225 14.8061 20.7225 13.9037C20.7225 13.6029 20.5665 13.3144 20.2889 13.1018C20.0113 12.8891 19.6349 12.7696 19.2423 12.7696C18.8497 12.7696 18.4732 12.8891 18.1956 13.1018C17.9181 13.3144 17.7621 13.6029 17.7621 13.9037C17.7621 14.2045 17.6062 14.493 17.3286 14.7057C17.051 14.9184 16.6745 15.0378 16.2819 15.0378H13.3216C12.929 15.0378 12.5525 14.9184 12.2749 14.7057C11.9974 14.493 11.8414 14.2045 11.8414 13.9037V9.36716C11.8414 9.06637 11.9974 8.7779 12.2749 8.56521C12.5525 8.35251 12.929 8.23302 13.3216 8.23302ZM14.8018 0.294067C11.8743 0.294067 9.01248 0.959227 6.57835 2.20543C4.14421 3.45164 2.24703 5.22292 1.12672 7.29528C0.00641336 9.36764 -0.286711 11.648 0.284418 13.848C0.855547 16.048 2.26528 18.0689 4.33534 19.655C6.4054 21.2411 9.04282 22.3213 11.9141 22.7589C14.7853 23.1965 17.7615 22.9719 20.4661 22.1135C23.1708 21.2551 25.4825 19.8014 27.109 17.9364C28.7354 16.0713 29.6035 13.8785 29.6035 11.6354C29.6035 10.1461 29.2207 8.67128 28.4768 7.29528C27.7329 5.91928 26.6427 4.66902 25.2682 3.61588C23.8937 2.56273 22.262 1.72733 20.4661 1.15738C18.6703 0.587421 16.7456 0.294067 14.8018 0.294067ZM14.8018 20.7085C12.4598 20.7085 10.1703 20.1764 8.22303 19.1794C6.27572 18.1825 4.75798 16.7654 3.86173 15.1076C2.96548 13.4497 2.73098 11.6254 3.18789 9.86536C3.64479 8.10535 4.77257 6.48868 6.42862 5.21979C8.08467 3.95089 10.1946 3.08677 12.4916 2.73668C14.7886 2.38659 17.1695 2.56627 19.3333 3.25299C21.497 3.93971 23.3464 5.10263 24.6475 6.59469C25.9487 8.08676 26.6432 9.84095 26.6432 11.6354C26.6432 14.0418 25.3956 16.3495 23.1749 18.0511C20.9542 19.7526 17.9423 20.7085 14.8018 20.7085Z" fill="white"/>
</svg>
