<svg width="39" height="43" viewBox="0 0 39 43" fill="none" xmlns="http://www.w3.org/2000/svg">
<path d="M31.3653 29.7261V18.7164C31.3653 11.9565 28.1242 6.29753 22.4721 4.80021V3.3029C22.4721 1.47529 21.1283 0 19.488 0C17.8477 0 16.5434 1.47529 16.5434 3.3029V4.80021C10.8715 6.29753 7.65022 11.9345 7.65022 18.7164V29.7261L5.08109 32.5666C3.83605 33.9538 4.7056 36.3319 6.46447 36.3319H32.4917C34.2506 36.3319 35.1399 33.9538 33.8949 32.5666L31.3653 29.7261ZM19.488 42.9377C21.6619 42.9377 23.4405 40.9559 23.4405 38.5338H15.5355C15.5355 40.9559 17.2943 42.9377 19.488 42.9377ZM9.17193 4.91031C10.002 4.07357 10.0217 2.64232 9.23122 1.76155C8.48025 0.924811 7.25497 0.902792 6.48423 1.71751C3.10483 5.15252 0.772855 9.82062 0.021879 15.0612C-0.155984 16.4044 0.772856 17.6155 1.99813 17.6155C2.94673 17.6155 3.77676 16.8448 3.93486 15.7879C4.52774 11.5161 6.42494 7.70676 9.17193 4.91031ZM32.551 1.71751C31.7605 0.902792 30.5352 0.924811 29.7843 1.76155C28.9938 2.64232 29.0333 4.05155 29.8435 4.88829C32.5708 7.68474 34.4877 11.4941 35.0806 15.7658C35.219 16.8228 36.049 17.5934 37.0174 17.5934C38.2229 17.5934 39.1715 16.3824 38.9738 15.0392C38.2229 9.82062 35.9106 5.17454 32.551 1.71751Z" fill="white"/>
</svg>
