<svg width="31" height="24" viewBox="0 0 31 24" fill="none" xmlns="http://www.w3.org/2000/svg">
<path d="M14.2317 8.66515H17.1921C17.5847 8.66515 17.9611 8.78464 18.2387 8.99733C18.5163 9.21003 18.6723 9.4985 18.6723 9.79929C18.6723 10.1001 18.8282 10.3886 19.1058 10.6012C19.3834 10.8139 19.7599 10.9334 20.1524 10.9334C20.545 10.9334 20.9215 10.8139 21.1991 10.6012C21.4767 10.3886 21.6326 10.1001 21.6326 9.79929C21.6326 8.89691 21.1648 8.0315 20.332 7.39342C19.4993 6.75535 18.3698 6.39688 17.1921 6.39688H14.2317C13.054 6.39688 11.9246 6.75535 11.0918 7.39342C10.2591 8.0315 9.79122 8.89691 9.79122 9.79929V14.3358C9.79122 15.2382 10.2591 16.1036 11.0918 16.7417C11.9246 17.3798 13.054 17.7382 14.2317 17.7382H17.1921C18.3698 17.7382 19.4993 17.3798 20.332 16.7417C21.1648 16.1036 21.6326 15.2382 21.6326 14.3358C21.6326 14.035 21.4767 13.7466 21.1991 13.5339C20.9215 13.3212 20.545 13.2017 20.1524 13.2017C19.7599 13.2017 19.3834 13.3212 19.1058 13.5339C18.8282 13.7466 18.6723 14.035 18.6723 14.3358C18.6723 14.6366 18.5163 14.9251 18.2387 15.1378C17.9611 15.3505 17.5847 15.47 17.1921 15.47H14.2317C13.8392 15.47 13.4627 15.3505 13.1851 15.1378C12.9075 14.9251 12.7516 14.6366 12.7516 14.3358V9.79929C12.7516 9.4985 12.9075 9.21003 13.1851 8.99733C13.4627 8.78464 13.8392 8.66515 14.2317 8.66515ZM15.7119 0.726196C12.7844 0.726196 9.92264 1.39136 7.4885 2.63756C5.05437 3.88377 3.15719 5.65505 2.03688 7.72741C0.91657 9.79977 0.623446 12.0801 1.19457 14.2802C1.7657 16.4802 3.17543 18.501 5.2455 20.0871C7.31556 21.6732 9.95298 22.7534 12.8242 23.191C15.6955 23.6286 18.6716 23.404 21.3763 22.5456C24.081 21.6872 26.3927 20.2336 28.0191 18.3685C29.6456 16.5034 30.5137 14.3107 30.5137 12.0676C30.5137 10.5782 30.1308 9.10341 29.387 7.72741C28.6431 6.35141 27.5528 5.10115 26.1783 4.04801C24.8039 2.99486 23.1721 2.15946 21.3763 1.58951C19.5805 1.01955 17.6557 0.726196 15.7119 0.726196ZM15.7119 21.1407C13.3699 21.1407 11.0805 20.6085 9.13319 19.6116C7.18588 18.6146 5.66814 17.1976 4.77189 15.5397C3.87564 13.8818 3.64114 12.0575 4.09804 10.2975C4.55495 8.53748 5.68273 6.92081 7.33878 5.65192C8.99483 4.38302 11.1048 3.51889 13.4018 3.16881C15.6988 2.81872 18.0797 2.9984 20.2434 3.68512C22.4072 4.37184 24.2565 5.53476 25.5577 7.02682C26.8588 8.51888 27.5533 10.2731 27.5533 12.0676C27.5533 14.4739 26.3057 16.7817 24.0851 18.4832C21.8644 20.1847 18.8525 21.1407 15.7119 21.1407Z" fill="white"/>
</svg>
