<svg width="53" height="58" viewBox="0 0 53 58" fill="none" xmlns="http://www.w3.org/2000/svg">
<path d="M26.377 21.8992C25.1017 21.8992 23.855 22.3128 22.7946 23.0876C21.7343 23.8625 20.9078 24.9638 20.4198 26.2523C19.9317 27.5408 19.8041 28.9587 20.0528 30.3265C20.3016 31.6944 20.9158 32.9509 21.8175 33.9371C22.7193 34.9233 23.8682 35.5949 25.119 35.867C26.3698 36.1391 27.6663 35.9994 28.8445 35.4657C30.0227 34.932 31.0298 34.0281 31.7383 32.8685C32.4468 31.7089 32.825 30.3455 32.825 28.9508C32.825 28.0248 32.6582 27.1078 32.3341 26.2523C32.0101 25.3968 31.5351 24.6194 30.9364 23.9646C30.3376 23.3098 29.6268 22.7904 28.8445 22.436C28.0622 22.0816 27.2237 21.8992 26.377 21.8992ZM52.195 14.9329C52.1813 12.7371 51.8115 10.5614 51.103 8.5068C50.5811 7.00338 49.7736 5.63807 48.7339 4.50097C47.6941 3.36388 46.4457 2.48083 45.071 1.91011C43.1923 1.13518 41.2028 0.730842 39.195 0.715883C35.841 0.516846 34.853 0.516846 26.377 0.516846C17.901 0.516846 16.913 0.516846 13.559 0.715883C11.5511 0.730842 9.56164 1.13518 7.68295 1.91011C6.30823 2.48083 5.0598 3.36388 4.02003 4.50097C2.98027 5.63807 2.17282 7.00338 1.65095 8.5068C0.942359 10.5614 0.572631 12.7371 0.558953 14.9329C0.376953 18.6009 0.376953 19.6814 0.376953 28.9508C0.376953 38.2203 0.376953 39.3008 0.558953 42.9688C0.586939 45.1723 0.956166 47.3547 1.65095 49.4233C2.17051 50.9199 2.97729 52.2772 4.01695 53.4041C5.05226 54.548 6.30337 55.431 7.68295 55.9916C9.56164 56.7665 11.5511 57.1708 13.559 57.1858C16.913 57.3848 17.901 57.3848 26.377 57.3848C34.853 57.3848 35.841 57.3848 39.195 57.1858C41.2028 57.1708 43.1923 56.7665 45.071 55.9916C46.4505 55.431 47.7017 54.548 48.737 53.4041C49.7766 52.2772 50.5834 50.9199 51.103 49.4233C51.8109 47.3587 52.1805 45.1738 52.195 42.9688C52.377 39.3008 52.377 38.2203 52.377 28.9508C52.377 19.6814 52.377 18.6009 52.195 14.9329ZM45.591 37.6801C45.5075 39.4347 45.1651 41.1631 44.577 42.7982C44.0722 44.1621 43.3218 45.4011 42.3705 46.4416C41.4191 47.482 40.2861 48.3026 39.039 48.8546C37.5297 49.462 35.9405 49.798 34.333 49.8498C32.279 49.8498 31.733 49.8498 26.377 49.8498C21.021 49.8498 20.475 49.8498 18.421 49.8498C16.8135 49.798 15.2242 49.462 13.715 48.8546C12.4256 48.3306 11.2613 47.4947 10.309 46.4093C9.36689 45.3892 8.63935 44.157 8.17695 42.7982C7.6194 41.1493 7.32053 39.4094 7.29295 37.6516C7.29295 35.4054 7.29295 34.8082 7.29295 28.9508C7.29295 23.0934 7.29295 22.4963 7.29295 20.25C7.32053 18.4923 7.6194 16.7523 8.17695 15.1035C8.65608 13.6935 9.42047 12.4201 10.413 11.3786C11.3498 10.3539 12.4754 9.55912 13.715 9.04704C15.2242 8.43971 16.8135 8.10363 18.421 8.05185C20.475 8.05185 21.021 8.05185 26.377 8.05185C31.733 8.05185 32.279 8.05185 34.333 8.05185C35.9405 8.10363 37.5297 8.43971 39.039 9.04704C40.3283 9.57103 41.4926 10.407 42.445 11.4924C43.387 12.5124 44.1146 13.7447 44.577 15.1035C45.1323 16.754 45.4396 18.492 45.487 20.25C45.487 22.4963 45.487 23.0934 45.487 28.9508C45.487 34.8082 45.669 35.4054 45.591 37.6516V37.6801ZM41.431 16.5252C41.1214 15.6067 40.6333 14.7726 40.0004 14.0805C39.3675 13.3883 38.6048 12.8545 37.7649 12.516C36.6118 12.0788 35.3973 11.8671 34.177 11.8904C32.149 11.8904 31.577 11.8904 26.377 11.8904C21.177 11.8904 20.605 11.8904 18.577 11.8904C17.3504 11.9036 16.1357 12.1538 14.989 12.6297C14.162 12.9529 13.4074 13.4649 12.7753 14.1316C12.1432 14.7984 11.6481 15.6046 11.323 16.4967C10.9454 17.7631 10.7609 19.0888 10.777 20.4206C10.777 22.6385 10.777 23.264 10.777 28.9508C10.777 34.6376 10.777 35.2632 10.777 37.481C10.8027 38.8208 11.0312 40.1467 11.453 41.4049C11.7625 42.3234 12.2506 43.1575 12.8835 43.8496C13.5164 44.5418 14.2791 45.0756 15.119 45.4141C16.2283 45.8603 17.3956 46.1099 18.577 46.1534C20.605 46.1534 21.177 46.1534 26.377 46.1534C31.577 46.1534 32.149 46.1534 34.177 46.1534C35.4035 46.1403 36.6182 45.89 37.7649 45.4141C38.6048 45.0756 39.3675 44.5418 40.0004 43.8496C40.6333 43.1575 41.1214 42.3234 41.431 41.4049C41.8661 40.1508 42.095 38.8224 42.1069 37.481C42.1069 35.2632 42.1069 34.6376 42.1069 28.9508C42.1069 23.264 42.1069 22.6385 42.1069 20.4206C42.1077 19.078 41.8784 17.7471 41.431 16.4967V16.5252ZM26.377 39.8126C25.0739 39.8126 23.7836 39.5315 22.5801 38.9853C21.3765 38.4391 20.2833 37.6385 19.3631 36.6296C18.4429 35.6206 17.7138 34.423 17.2175 33.1053C16.7212 31.7877 16.4675 30.3759 16.471 28.9508C16.471 26.8014 17.0541 24.7002 18.1466 22.9134C19.2391 21.1266 20.7918 19.7344 22.6082 18.9132C24.4245 18.0919 26.4228 17.8785 28.3502 18.2999C30.2775 18.7213 32.0472 19.7586 33.4351 21.2805C34.8231 22.8024 35.767 24.7404 36.1473 26.8493C36.5276 28.9581 36.3272 31.143 35.5714 33.1272C34.8157 35.1114 33.5387 36.8058 31.9019 37.9959C30.2652 39.186 28.3424 39.8182 26.377 39.8126ZM36.777 20.2216C36.2022 20.1551 35.6703 19.8583 35.2837 19.3884C34.8972 18.9185 34.6833 18.3088 34.6833 17.6768C34.6833 17.0447 34.8972 16.435 35.2837 15.9651C35.6703 15.4952 36.2022 15.1984 36.777 15.1319C37.3517 15.1984 37.8836 15.4952 38.2702 15.9651C38.6567 16.435 38.8706 17.0447 38.8706 17.6768C38.8706 18.3088 38.6567 18.9185 38.2702 19.3884C37.8836 19.8583 37.3517 20.1551 36.777 20.2216Z" fill="white"/>
</svg>
