<svg width="8" height="10" viewBox="0 0 8 10" fill="none" xmlns="http://www.w3.org/2000/svg">
<path d="M3.98738 4.68703L4.07178 2.69623L3.9826 0.727734L3.89678 2.69644L3.98738 4.68703ZM3.98683 5.38743L3.90243 7.37823L3.99301 9.34843L4.07743 7.37802L3.98683 5.38743ZM3.84324 4.73481L3.09629 2.95921L2.2081 1.30618L2.94522 3.06479L3.84324 4.73481ZM4.13237 5.34136L4.87791 7.11696L5.76751 8.76829L5.02898 7.00968L4.13237 5.34136ZM3.73699 4.86243L2.36088 3.77779L0.910805 2.88704L2.2729 3.9615L3.73699 4.86243ZM4.23722 5.21373L5.61473 6.29837L7.0648 7.18912L5.70131 6.11466L4.23722 5.21373Z" fill="#314294"/>
</svg>
