<svg width="50" height="58" viewBox="0 0 50 58" fill="none" xmlns="http://www.w3.org/2000/svg">
<path d="M25.4979 0.615234C19.6804 0.615521 14.0528 3.07901 9.62197 7.5649C5.19118 12.0508 2.24638 18.2664 1.31449 25.0995C0.382593 31.9325 1.52441 38.9373 4.53564 44.8603C7.54687 50.7832 12.231 55.238 17.7499 57.4274C18.9749 57.6826 19.4343 56.808 19.4343 56.0426C19.4343 55.3503 19.4036 53.0544 19.4036 50.6129C13.248 51.9612 11.6555 48.8273 11.1655 47.1875C10.6218 45.5926 9.75993 44.1792 8.65431 43.0695C7.79682 42.5229 6.57182 41.1746 8.62366 41.1382C9.40713 41.2393 10.1586 41.5637 10.8143 42.0839C11.47 42.6041 12.0107 43.3046 12.3905 44.1263C12.7256 44.8426 13.1762 45.4731 13.7164 45.9819C14.2567 46.4906 14.876 46.8675 15.5388 47.0909C16.2017 47.3143 16.8951 47.3799 17.5793 47.2839C18.2635 47.1879 18.9251 46.9322 19.5261 46.5314C19.6321 45.0493 20.1872 43.6636 21.088 42.6323C15.6368 41.9035 9.94055 39.3889 9.94055 28.2379C9.90612 25.3405 10.8046 22.5373 12.4518 20.403C11.7028 17.8848 11.7904 15.1213 12.6968 12.6774C12.6968 12.6774 14.7486 11.9121 19.4342 15.6656C23.4431 14.3537 27.6753 14.3537 31.6841 15.6656C36.3697 11.8757 38.4216 12.6774 38.4216 12.6774C39.3281 15.1213 39.4157 17.8849 38.6666 20.403C40.3187 22.5336 41.218 25.3393 41.1778 28.2379C41.1778 39.4254 35.4509 41.9035 29.9998 42.6323C30.5845 43.3375 31.0348 44.1841 31.3201 45.1147C31.6055 46.0453 31.7192 47.0381 31.6535 48.0256C31.6535 51.9249 31.6229 55.0588 31.6229 56.0427C31.6229 56.808 32.0822 57.7191 33.3072 57.4275C38.8164 55.2202 43.4871 50.7551 46.4855 44.829C49.4839 38.903 50.6149 31.9019 49.6765 25.0754C48.7382 18.2489 45.7916 12.0414 41.3627 7.561C36.9339 3.08057 31.311 0.618835 25.4979 0.615234Z" fill="white"/>
</svg>
