<svg width="43" height="46" viewBox="0 0 43 46" fill="none" xmlns="http://www.w3.org/2000/svg">
<path d="M21.4973 0C9.62663 0 1.24068e-05 10.4103 1.24068e-05 23.2523C-0.00483751 28.1261 1.41233 32.8782 4.05123 36.8372C6.69013 40.7962 10.4173 43.7617 14.706 45.3147C15.781 45.5289 16.1734 44.811 16.1734 44.1944C16.1734 43.6414 16.1546 42.1795 16.1438 40.2399C10.1641 41.6439 8.90101 37.122 8.90101 37.122C7.92544 34.4355 6.51451 33.7204 6.51451 33.7204C4.5607 32.2787 6.65963 32.3077 6.65963 32.3077C8.81769 32.4727 9.95182 34.7047 9.95182 34.7047C11.8707 38.2568 14.9855 37.232 16.211 36.6356C16.4045 35.1332 16.9608 34.1083 17.5763 33.5265C12.8033 32.9388 7.78301 30.9442 7.78301 22.0364C7.78301 19.4975 8.62151 17.4218 9.99751 15.7949C9.77444 15.2072 9.03807 12.842 10.2071 9.64309C10.2071 9.64309 12.0131 9.01778 16.1196 12.0256C17.8739 11.5092 19.6841 11.2464 21.5027 11.244C23.3214 11.2479 25.1315 11.5117 26.8857 12.0285C30.9896 9.02068 32.7929 9.64598 32.7929 9.64598C33.9646 12.8478 33.2282 15.2101 33.0079 15.7978C34.3866 17.4247 35.217 19.5004 35.217 22.0393C35.217 30.9702 30.1914 32.9359 25.4022 33.512C26.1736 34.2299 26.8616 35.6485 26.8616 37.8168C26.8616 40.926 26.8347 43.433 26.8347 44.1944C26.8347 44.8168 27.2217 45.5405 28.3128 45.3118C32.5973 43.7552 36.3199 40.7885 38.9551 36.8305C41.5903 32.8725 43.0052 28.123 43 23.2523C43 10.4103 33.3734 0 21.4973 0Z" fill="white"/>
</svg>
